<svg width="24" height="25" viewBox="0 0 24 25" fill="none" xmlns="http://www.w3.org/2000/svg">
<g id="vuesax/linear/invitation">
<g id="invitation">
<path id="Vector" d="M5 6C2 6 2 7.5 2 11V18C2 21.5 4 23 7 23H17C20 23 22 21.5 22 18V11C22 7.5 22 6 19 6" stroke="#010D13" stroke-width="1.5" stroke-miterlimit="10" stroke-linecap="round" stroke-linejoin="round"/>
<path id="Vector_2" d="M19 11V5.5C19 3.29 19 1.5 15 1.5H9C5 1.5 5 3.29 5 5.5V11" stroke="#010D13" stroke-width="1.5" stroke-miterlimit="10" stroke-linecap="round" stroke-linejoin="round"/>
<path id="Vector_3" d="M10.5508 8.72998H13.8808" stroke="#010D13" stroke-width="1.5" stroke-linecap="round" stroke-linejoin="round"/>
<path id="Vector_4" d="M9.7207 5.72998H14.7207" stroke="#010D13" stroke-width="1.5" stroke-linecap="round" stroke-linejoin="round"/>
<path id="Vector_5" d="M21 9.5L13.37 16C12.34 16.82 10.65 16.82 9.62 16L3 9.5" stroke="#010D13" stroke-width="1.5" stroke-miterlimit="10" stroke-linecap="round" stroke-linejoin="round"/>
</g>
</g>
</svg>
