<svg width="12" height="11" viewBox="0 0 12 11" fill="none" xmlns="http://www.w3.org/2000/svg">
<path fill-rule="evenodd" clip-rule="evenodd" d="M1.28879 4.89055C4.33074 3.56522 6.35919 2.69148 7.37413 2.26934C10.272 1.06402 10.8741 0.854644 11.2666 0.84773C11.3529 0.846209 11.5459 0.867602 11.6709 0.969048C11.7765 1.05471 11.8056 1.17042 11.8195 1.25164C11.8334 1.33285 11.8507 1.51786 11.8369 1.66242C11.6799 3.3124 11.0004 7.31648 10.6547 9.1645C10.5084 9.94646 10.2204 10.2086 9.94157 10.2343C9.3356 10.2901 8.87546 9.83384 8.28855 9.44912C7.37015 8.8471 6.85132 8.47234 5.95985 7.88487C4.92962 7.20596 5.59748 6.83282 6.18461 6.223C6.33826 6.06341 9.00817 3.63492 9.05984 3.41462C9.06631 3.38707 9.0723 3.28437 9.01129 3.23013C8.95028 3.1759 8.86023 3.19445 8.79524 3.2092C8.70313 3.2301 7.23598 4.19984 4.39379 6.11839C3.97735 6.40436 3.60014 6.54369 3.26218 6.53639C2.8896 6.52834 2.17292 6.32573 1.64014 6.15254C0.986657 5.94012 0.467285 5.82781 0.512511 5.46706C0.536067 5.27915 0.794828 5.08699 1.28879 4.89055Z" fill="#00AEEF"/>
</svg>
