<svg width="25" height="24" viewBox="0 0 25 24" fill="none" xmlns="http://www.w3.org/2000/svg">
<path d="M14.0545 8.85736C14.0177 8.85736 13.9795 8.85211 13.9427 8.84011C13.7455 8.77861 13.6352 8.56861 13.6967 8.37061C14.8232 4.76311 17.008 2.97511 20.2105 3.08911C21.3047 3.11911 22.1635 3.46036 22.759 4.10386C23.4872 4.88761 23.8165 6.12211 23.7385 7.77286C23.7295 7.97986 23.5562 8.14111 23.347 8.12986C23.14 8.12011 22.9802 7.94461 22.99 7.73761C23.0575 6.29611 22.795 5.24536 22.2092 4.61386C21.7487 4.11736 21.088 3.86386 20.1887 3.83911C17.3327 3.75361 15.4412 5.30236 14.4137 8.59411C14.362 8.75461 14.2142 8.85736 14.0545 8.85736Z" fill="#566972"/>
<path d="M13.6177 15.706C12.8032 15.706 12.1949 14.6042 11.6422 12.1337C11.4734 11.4685 11.1779 9.80049 10.7632 7.18749C10.5119 5.62224 9.98845 4.63449 9.20695 4.25424C9.02095 4.16349 8.94295 3.93924 9.03445 3.75324C9.1252 3.56649 9.3532 3.49149 9.53545 3.57999C10.5502 4.07424 11.2117 5.24799 11.5049 7.06974C12.0164 10.297 12.2587 11.5105 12.3719 11.9605C13.0342 14.9222 13.5944 14.956 13.6177 14.956C13.6664 14.956 14.1307 14.9012 15.3502 13.0075C16.2202 11.653 16.6927 10.6217 16.7534 9.94224C16.8104 9.40674 16.7384 9.02649 16.5412 8.80674C16.3702 8.61699 16.0762 8.521 15.6652 8.521C15.4582 8.521 15.2902 8.35299 15.2902 8.146C15.2902 7.93899 15.4582 7.771 15.6652 7.771C16.2974 7.771 16.7797 7.95099 17.0992 8.30574C17.4449 8.69049 17.5799 9.26649 17.4997 10.0165C17.4269 10.8227 16.9297 11.9365 15.9809 13.414C14.6722 15.4457 14.0302 15.706 13.6177 15.706Z" fill="#566972"/>
<path d="M11.4219 22.4125C9.98719 22.4125 8.78719 21.163 7.85569 18.6993L6.08944 12.2965C5.27644 9.4075 4.60519 9.0955 4.35394 9.0955C4.33594 9.10675 4.05319 9.2185 2.86219 10.0442C2.69869 10.1567 2.47594 10.1237 2.35294 9.967L1.32994 8.662C1.20694 8.5045 1.22794 8.27875 1.37869 8.1475C2.44894 7.21825 3.50419 6.28525 4.54519 5.35525C5.10544 4.8745 5.61769 4.4785 6.07069 4.17325C6.24169 4.0585 6.47494 4.102 6.59119 4.2745C6.70669 4.44625 6.66169 4.6795 6.48919 4.795C6.05944 5.0845 5.57119 5.46325 5.03794 5.92C4.08694 6.76975 3.11944 7.62625 2.13919 8.4805L2.72494 9.22825C3.91669 8.41675 4.17094 8.347 4.35319 8.347C5.31019 8.347 6.09094 9.538 6.81169 12.0962L8.56819 18.4683C9.36695 20.578 10.3314 21.664 11.4219 21.664C13.3412 21.664 15.7682 19.7965 18.6347 16.1133C21.4337 12.5553 22.8984 9.73825 22.9892 7.73875C22.9982 7.5325 23.1377 7.36525 23.3799 7.381C23.5869 7.39075 23.7467 7.5655 23.7377 7.7725C23.6394 9.96175 22.1627 12.841 19.2249 16.5752C16.1687 20.5023 13.6149 22.4125 11.4219 22.4125Z" fill="#566972"/>
<path d="M8 4.125C8.20711 4.125 8.375 3.95711 8.375 3.75C8.375 3.54289 8.20711 3.375 8 3.375C7.79289 3.375 7.625 3.54289 7.625 3.75C7.625 3.95711 7.79289 4.125 8 4.125Z" fill="#566972"/>
<path d="M8 4.125C8.20711 4.125 8.375 3.95711 8.375 3.75C8.375 3.54289 8.20711 3.375 8 3.375C7.79289 3.375 7.625 3.54289 7.625 3.75C7.625 3.95711 7.79289 4.125 8 4.125Z" fill="#566972"/>
</svg>
