<svg width="103" height="115" viewBox="0 0 103 115" fill="none" xmlns="http://www.w3.org/2000/svg">
<path opacity="0.2" d="M53.9244 114.329C57.981 111.742 62.0496 109.166 66.1063 106.578C67.9426 105.411 69.8028 104.256 71.5911 103.004C75.8398 100.031 79.8244 96.649 83.365 92.8457C90.374 85.2994 95.7029 76.3569 99.0754 66.62C101.824 58.6645 103 50.2756 103 41.8747V25.8553C103 23.7009 101.5 21.8233 99.4715 21.2095C98.0072 20.7642 96.555 20.3068 95.1508 19.7171C95.5348 19.8735 95.9189 20.042 96.303 20.1985C93.7946 19.1273 91.4422 17.7553 89.2819 16.0944L90.254 16.8526C88.1177 15.1917 86.1974 13.278 84.5411 11.1357L85.2972 12.1105C83.641 9.94413 82.2608 7.5731 81.1926 5.05765C81.3486 5.44279 81.5167 5.82793 81.6727 6.21307C81.3126 5.34651 80.9766 4.45587 80.6885 3.56523C80.0404 1.5312 78.2281 0.0267459 76.0558 0.0267459H32.9811C31.0008 0.0267459 29.0085 -0.0334324 27.0282 0.0267459H26.9442C24.7598 0.0267459 22.9596 1.5312 22.3115 3.56523C22.0234 4.4679 21.6994 5.34651 21.3273 6.21307C21.4833 5.82793 21.6514 5.44279 21.8074 5.05765C20.7392 7.5731 19.359 9.93209 17.7028 12.1105L18.4589 11.1357C16.8026 13.278 14.8823 15.1917 12.746 16.8526L13.7181 16.0944C11.5578 17.7553 9.19343 19.1273 6.69704 20.1985C7.0811 20.042 7.46516 19.8735 7.84922 19.7171C6.433 20.3068 4.99278 20.7642 3.52855 21.2095C1.50023 21.8233 0 23.7009 0 25.8553V40.3703C0 42.9218 0 45.4734 0.180028 48.025C0.564088 53.2123 1.44022 58.3877 2.89245 63.3825C5.7729 73.2998 10.7657 82.4349 17.3907 90.3183C22.5395 96.4444 28.7445 101.403 35.4655 105.676L48.7516 114.125C48.8596 114.197 48.9796 114.269 49.0876 114.341C51.212 115.689 54.4765 114.859 55.6526 112.608C56.9008 110.225 56.1927 107.469 53.9244 106.025C51.764 104.653 49.6037 103.281 47.4554 101.909C44.6949 100.151 41.9465 98.4062 39.1861 96.649C37.2538 95.4214 35.3695 94.1095 33.5452 92.7134L34.5174 93.4716C29.9807 89.9452 25.9 85.853 22.3835 81.3036L23.1396 82.2784C19.563 77.6206 16.5866 72.5175 14.2942 67.1015C14.4502 67.4866 14.6183 67.8718 14.7743 68.2569C12.4339 62.6844 10.8377 56.8351 10.0336 50.8413C10.0936 51.2625 10.1536 51.6958 10.2016 52.1171C9.6855 48.2175 9.60149 44.318 9.60149 40.4064V25.9034C8.42531 27.456 7.24913 28.9966 6.07294 30.5492C10.2136 29.2975 14.2222 27.6365 17.7388 25.097C21.9034 22.0881 25.456 18.3811 28.0964 13.952C29.5486 11.5208 30.7128 8.87296 31.5769 6.17697C30.0287 7.35646 28.4924 8.53596 26.9442 9.71545H70.0189C71.9992 9.71545 73.9915 9.76359 75.9718 9.71545H76.0558C74.5076 8.53596 72.9713 7.35646 71.4231 6.17697C74.4356 15.6009 81.2766 23.7972 90.254 28.0337C92.4144 29.0568 94.6347 29.8511 96.9271 30.5492C95.7509 28.9966 94.5747 27.456 93.3985 25.9034V42.97C93.3985 46.027 93.1945 49.0841 92.7984 52.1171C92.8584 51.6958 92.9184 51.2625 92.9664 50.8413C92.1503 56.823 90.5541 62.6844 88.2257 68.2569C88.3817 67.8718 88.5498 67.4866 88.7058 67.1015C86.4134 72.5175 83.437 77.6206 79.8604 82.2784L80.6165 81.3036C77.1 85.853 73.0193 89.9452 68.4826 93.4716L69.4548 92.7134C66.7664 94.7955 63.9099 96.5888 61.0535 98.4183C57.885 100.44 54.7165 102.45 51.548 104.472C50.7319 104.99 49.9038 105.519 49.0876 106.037C48.0435 106.699 47.2153 107.698 46.8793 108.913C46.5672 110.069 46.7113 111.597 47.3594 112.62C48.7276 114.739 51.656 115.774 53.9244 114.329Z" fill="#00668C"/>
</svg>
