<svg width="21" height="20" viewBox="0 0 21 20" fill="none" xmlns="http://www.w3.org/2000/svg">
<path d="M4.86589 8.33398C3.94922 8.33398 3.19922 9.08398 3.19922 10.0007C3.19922 10.9173 3.94922 11.6673 4.86589 11.6673C5.78255 11.6673 6.53255 10.9173 6.53255 10.0007C6.53255 9.08398 5.78255 8.33398 4.86589 8.33398Z" fill="#CACFD2" stroke="#CACFD2" stroke-width="1.5"/>
<path d="M16.5319 8.33398C15.6152 8.33398 14.8652 9.08398 14.8652 10.0007C14.8652 10.9173 15.6152 11.6673 16.5319 11.6673C17.4486 11.6673 18.1986 10.9173 18.1986 10.0007C18.1986 9.08398 17.4486 8.33398 16.5319 8.33398Z" fill="#CACFD2" stroke="#CACFD2" stroke-width="1.5"/>
<path d="M10.6999 8.33398C9.7832 8.33398 9.0332 9.08398 9.0332 10.0007C9.0332 10.9173 9.7832 11.6673 10.6999 11.6673C11.6165 11.6673 12.3665 10.9173 12.3665 10.0007C12.3665 9.08398 11.6165 8.33398 10.6999 8.33398Z" fill="#CACFD2" stroke="#CACFD2" stroke-width="1.5"/>
</svg>
