<svg width="228" height="228" viewBox="0 0 228 228" fill="none" xmlns="http://www.w3.org/2000/svg">
<circle cx="114" cy="114" r="114" fill="#D9D9D9"/>
<path d="M103.625 147.415H123.375C139.833 147.415 146.416 140.832 146.416 124.374V104.624C146.416 88.1654 139.833 81.582 123.375 81.582H103.625C87.1663 81.582 80.583 88.1654 80.583 104.624V124.374C80.583 140.832 87.1663 147.415 103.625 147.415Z" stroke="#292D32" stroke-width="4.9375" stroke-linecap="round" stroke-linejoin="round"/>
<path d="M103.625 107.917C107.261 107.917 110.209 104.969 110.209 101.333C110.209 97.6975 107.261 94.75 103.625 94.75C99.9895 94.75 97.042 97.6975 97.042 101.333C97.042 104.969 99.9895 107.917 103.625 107.917Z" stroke="#292D32" stroke-width="4.9375" stroke-linecap="round" stroke-linejoin="round"/>
<path d="M82.7949 137.378L99.0228 126.482C101.623 124.738 105.376 124.935 107.713 126.943L108.799 127.897C111.367 130.103 115.514 130.103 118.082 127.897L131.775 116.146C134.342 113.941 138.49 113.941 141.057 116.146L146.423 120.755" stroke="#292D32" stroke-width="4.9375" stroke-linecap="round" stroke-linejoin="round"/>
</svg>
