<svg width="48" height="48" viewBox="0 0 48 48" fill="none" xmlns="http://www.w3.org/2000/svg">
<rect width="48" height="48" rx="24" fill="#00AEEF"/>
<path fill-rule="evenodd" clip-rule="evenodd" d="M29.3033 18.6959C29.5962 18.9888 29.5962 19.4636 29.3033 19.7565L25.0607 23.9992L29.3033 28.2418C29.5962 28.5347 29.5962 29.0096 29.3033 29.3025C29.0104 29.5954 28.5355 29.5954 28.2426 29.3025L24 25.0598L19.7574 29.3025C19.4645 29.5954 18.9896 29.5954 18.6967 29.3025C18.4038 29.0096 18.4038 28.5347 18.6967 28.2418L22.9393 23.9992L18.6967 19.7565C18.4038 19.4636 18.4038 18.9888 18.6967 18.6959C18.9896 18.403 19.4645 18.403 19.7574 18.6959L24 22.9385L28.2426 18.6959C28.5355 18.403 29.0104 18.403 29.3033 18.6959Z" fill="white"/>
</svg>
