<svg width="40" height="40" viewBox="0 0 40 40" fill="none" xmlns="http://www.w3.org/2000/svg">
<rect width="40" height="40" rx="20" fill="#00AEEF" fill-opacity="0.1"/>
<path d="M26.6654 23.1605V15.1138C26.6654 14.3138 26.012 13.7205 25.2187 13.7871H25.1787C23.7787 13.9071 21.652 14.6205 20.4654 15.3671L20.352 15.4405C20.1587 15.5605 19.8387 15.5605 19.6454 15.4405L19.4787 15.3405C18.292 14.6005 16.172 13.8938 14.772 13.7805C13.9787 13.7138 13.332 14.3138 13.332 15.1071V23.1605C13.332 23.8005 13.852 24.4005 14.492 24.4805L14.6854 24.5071C16.132 24.7005 18.3654 25.4338 19.6454 26.1338L19.672 26.1471C19.852 26.2471 20.1387 26.2471 20.312 26.1471C21.592 25.4405 23.832 24.7005 25.2854 24.5071L25.5054 24.4805C26.1454 24.4005 26.6654 23.8005 26.6654 23.1605Z" stroke="#010D13" stroke-linecap="round" stroke-linejoin="round"/>
<path d="M20 15.6602V25.6602" stroke="#010D13" stroke-linecap="round" stroke-linejoin="round"/>
<path d="M17.168 17.6602H15.668" stroke="#010D13" stroke-linecap="round" stroke-linejoin="round"/>
<path d="M17.668 19.6602H15.668" stroke="#010D13" stroke-linecap="round" stroke-linejoin="round"/>
</svg>
