<svg width="40" height="40" viewBox="0 0 40 40" fill="none" xmlns="http://www.w3.org/2000/svg">
<rect width="40" height="40" rx="20" fill="#00AEEF" fill-opacity="0.1"/>
<path d="M17.9987 26.6673H21.9987C25.332 26.6673 26.6654 25.334 26.6654 22.0007V18.0007C26.6654 14.6673 25.332 13.334 21.9987 13.334H17.9987C14.6654 13.334 13.332 14.6673 13.332 18.0007V22.0007C13.332 25.334 14.6654 26.6673 17.9987 26.6673Z" stroke="#010D13" stroke-linecap="round" stroke-linejoin="round"/>
<path d="M18.0664 20.001V19.0143C18.0664 17.741 18.9664 17.2276 20.0664 17.861L20.9197 18.3543L21.7731 18.8476C22.8731 19.481 22.8731 20.521 21.7731 21.1543L20.9197 21.6476L20.0664 22.141C18.9664 22.7743 18.0664 22.2543 18.0664 20.9876V20.001Z" stroke="#010D13" stroke-miterlimit="10" stroke-linecap="round" stroke-linejoin="round"/>
</svg>
