<svg width="19" height="18" viewBox="0 0 19 18" fill="none" xmlns="http://www.w3.org/2000/svg">
<path fill-rule="evenodd" clip-rule="evenodd" d="M4.3785 8.99877C4.3785 8.41418 4.47553 7.85365 4.64892 7.32798L1.61561 5.01172C1.02441 6.21197 0.691406 7.56452 0.691406 8.99877C0.691406 10.4319 1.02413 11.7835 1.61434 12.983L4.64597 10.6622C4.47427 10.139 4.3785 9.58054 4.3785 8.99877Z" fill="white"/>
<path fill-rule="evenodd" clip-rule="evenodd" d="M9.70395 3.68189C10.9739 3.68189 12.121 4.1319 13.0223 4.86822L15.6442 2.25003C14.0465 0.859089 11.9981 0 9.70395 0C6.14215 0 3.08099 2.03684 1.61523 5.01306L4.64841 7.32933C5.34733 5.20783 7.33959 3.68189 9.70395 3.68189Z" fill="white"/>
<path fill-rule="evenodd" clip-rule="evenodd" d="M9.70395 14.3193C7.33973 14.3193 5.34747 12.7934 4.64855 10.6719L1.61523 12.9877C3.08099 15.9644 6.14215 18.0012 9.70395 18.0012C11.9022 18.0012 14.0011 17.2206 15.5762 15.7581L12.697 13.5322C11.8846 14.044 10.8616 14.3193 9.70395 14.3193Z" fill="white"/>
<path fill-rule="evenodd" clip-rule="evenodd" d="M18.3082 9.00352C18.3082 8.47167 18.2262 7.8989 18.1033 7.36719H9.70508V10.8445H14.5393C14.2975 12.0301 13.6397 12.9415 12.6982 13.5347L15.5774 15.7605C17.232 14.2249 18.3082 11.9371 18.3082 9.00352Z" fill="white"/>
</svg>
