<svg width="25" height="24" viewBox="0 0 25 24" fill="none" xmlns="http://www.w3.org/2000/svg">
<path d="M12.344 4.24919C11.716 4.03123 11.2279 3.8617 10.7384 3.69076C9.97741 3.42436 9.64971 2.81037 9.85401 2.03541C10.0679 1.22483 10.6904 0.84162 11.4706 1.061C14.1114 1.8032 16.4616 3.09956 18.5334 4.96717C19.4315 5.77632 19.7126 6.62679 19.3396 7.84907C18.5265 10.5073 17.0347 12.6627 15.074 14.5047C14.5406 15.0061 13.7193 14.8921 13.1845 14.2881C12.6566 13.6926 12.6649 13.0673 13.2695 12.496C14.6023 11.2381 15.717 9.81782 16.441 8.08982C16.665 7.55514 16.505 7.21134 15.9611 7.05844C14.7614 6.72366 13.5643 6.74503 12.3838 7.13964C10.4724 7.77784 9.28635 9.47308 9.15198 11.704C8.98744 14.4292 9.77585 16.9421 10.7411 19.4151C10.9715 20.0063 11.243 20.5804 11.4816 21.1688C11.7613 21.854 11.4994 22.4167 10.7384 22.8085C10.0665 23.1532 9.41935 23.0392 9.13415 22.4124C7.56144 18.9607 6.2657 15.4235 6.53582 11.5088C6.78674 7.87756 8.58295 5.55409 11.9052 4.42583C12.004 4.39307 12.0986 4.34891 12.344 4.24919Z" stroke="#566972" stroke-miterlimit="10"/>
</svg>
