<svg width="32" height="33" viewBox="0 0 32 33" fill="none" xmlns="http://www.w3.org/2000/svg">
<rect y="0.5" width="32" height="32" rx="16" fill="#00AEEF" fill-opacity="0.1"/>
<path d="M11.6096 23.416C12.293 22.6827 13.3346 22.741 13.9346 23.541L14.7763 24.666C15.4513 25.5577 16.543 25.5577 17.218 24.666L18.0596 23.541C18.6596 22.741 19.7013 22.6827 20.3846 23.416C21.868 24.9994 23.0763 24.4743 23.0763 22.2577V12.866C23.0846 9.50768 22.3013 8.66602 19.1513 8.66602H12.8513C9.7013 8.66602 8.91797 9.50768 8.91797 12.866V22.2493C8.91797 24.4743 10.1346 24.991 11.6096 23.416Z" stroke="#00AEEF" stroke-width="1.5" stroke-linecap="round" stroke-linejoin="round"/>
<path d="M13.5 17.834L18.5 12.834" stroke="#00AEEF" stroke-width="1.5" stroke-linecap="round" stroke-linejoin="round"/>
<path d="M18.4941 17.8327H18.5016" stroke="#00AEEF" stroke-width="2" stroke-linecap="round" stroke-linejoin="round"/>
<path d="M13.4941 13.2507H13.5016" stroke="#00AEEF" stroke-width="2" stroke-linecap="round" stroke-linejoin="round"/>
</svg>
