<svg width="40" height="40" viewBox="0 0 40 40" fill="none" xmlns="http://www.w3.org/2000/svg">
<rect width="40" height="40" rx="20" fill="#00AEEF" fill-opacity="0.1"/>
<path d="M23.332 24.2878H20.6654L17.6987 26.2611C17.2587 26.5544 16.6654 26.2411 16.6654 25.7078V24.2878C14.6654 24.2878 13.332 22.9545 13.332 20.9545V16.9544C13.332 14.9544 14.6654 13.6211 16.6654 13.6211H23.332C25.332 13.6211 26.6654 14.9544 26.6654 16.9544V20.9545C26.6654 22.9545 25.332 24.2878 23.332 24.2878Z" stroke="#010D13" stroke-miterlimit="10" stroke-linecap="round" stroke-linejoin="round"/>
<path d="M20.0012 19.5742V19.4342C20.0012 18.9809 20.2812 18.7409 20.5612 18.5476C20.8345 18.3609 21.1078 18.1209 21.1078 17.6809C21.1078 17.0676 20.6145 16.5742 20.0012 16.5742C19.3878 16.5742 18.8945 17.0676 18.8945 17.6809" stroke="#010D13" stroke-linecap="round" stroke-linejoin="round"/>
<path d="M19.9983 21.1654H20.0043" stroke="#010D13" stroke-linecap="round" stroke-linejoin="round"/>
</svg>
