<svg width="24" height="25" viewBox="0 0 24 25" fill="none" xmlns="http://www.w3.org/2000/svg">
<path d="M15.4172 20.2725C15.4164 19.68 15.575 19.0984 15.8762 18.5882L8.30551 14.1789C8.01266 14.6818 7.59322 15.099 7.08861 15.389C6.58399 15.679 6.01214 15.8317 5.43013 15.8316C4.54694 15.8312 3.69958 15.4803 3.07507 14.8558C2.45057 14.2313 2.09996 13.3842 2.09961 12.501C2.09996 11.618 2.45117 10.7712 3.07572 10.147C3.70026 9.52265 4.54706 9.17181 5.43013 9.17181C6.01233 9.17155 6.58441 9.32403 7.08925 9.61403C7.59409 9.90403 8.01373 10.3214 8.3068 10.8245L15.871 6.40875C15.5733 5.89978 15.4164 5.32055 15.4172 4.73091C15.4173 4.29337 15.5039 3.86006 15.6715 3.4559C15.8391 3.05173 16.0844 2.68447 16.3939 2.37521C16.7034 2.06595 17.0709 1.82073 17.4752 1.65346C17.8795 1.48618 18.3127 1.40022 18.7503 1.40039C19.1876 1.40039 19.6206 1.48639 20.0246 1.65378C20.4286 1.82117 20.7955 2.06657 21.1047 2.37585C21.4138 2.68513 21.6592 3.05248 21.8264 3.45654C21.9936 3.86061 22.0797 4.29361 22.0795 4.73091C22.0797 5.16815 21.9937 5.60096 21.8264 6.00495C21.6592 6.40894 21.4138 6.77614 21.1047 7.08532C20.7955 7.39449 20.4286 7.6395 20.0246 7.80674C19.6206 7.97399 19.1875 8.05998 18.7503 8.05981C18.1678 8.06014 17.5957 7.90797 17.0905 7.61824C16.5852 7.3285 16.1649 6.9116 15.871 6.40875L8.3068 10.8245C8.60358 11.3333 8.76002 11.912 8.75935 12.501C8.76032 13.0903 8.60341 13.6692 8.30551 14.1776L15.8762 18.5869C16.1695 18.085 16.5894 17.6687 17.0937 17.3796C17.598 17.0906 18.169 16.9388 18.7503 16.9394C19.1877 16.9394 19.6212 17.0256 20.0253 17.1931C20.4293 17.3605 20.7961 17.606 21.1053 17.9155C21.4145 18.2249 21.6599 18.5923 21.8271 18.9965C21.9942 19.4007 22.0798 19.8338 22.0795 20.2712C22.0795 21.1541 21.729 22.0009 21.1047 22.6253C20.4803 23.2496 19.6332 23.6004 18.7503 23.6004C17.8671 23.6007 17.0202 23.2502 16.3952 22.6262C15.7702 22.0022 15.4182 21.1556 15.4172 20.2725V20.2725Z" stroke="#7FD6F6" stroke-width="1.2" stroke-linecap="round"/>
</svg>
