<svg width="88" height="88" viewBox="0 0 88 88" fill="none" xmlns="http://www.w3.org/2000/svg">
<path d="M75.1127 12.8873C66.8611 4.6357 55.6695 0 44 0C32.3305 0 21.1389 4.6357 12.8873 12.8873C4.6357 21.1389 0 32.3305 0 44C0 55.6695 4.6357 66.8611 12.8873 75.1127C21.1389 83.3643 32.3305 88 44 88C55.6695 88 66.8611 83.3643 75.1127 75.1127C83.3643 66.8611 88 55.6695 88 44C88 32.3305 83.3643 21.1389 75.1127 12.8873ZM44 82.1026C22.9906 82.1026 5.89744 65.0098 5.89744 44C5.89744 22.9902 22.9902 5.89744 44 5.89744C65.0098 5.89744 82.1026 22.9902 82.1026 44C82.1026 65.0098 65.0098 82.1026 44 82.1026Z" fill="#3AC0A0"/>
<path d="M37.3684 53.226L23.8389 39.6967L19.6689 43.8667L37.3684 61.5662L68.2375 30.6973L64.0673 26.5273L37.3684 53.226Z" fill="#3AC0A0"/>
</svg>
