<svg width="40" height="40" viewBox="0 0 40 40" fill="none" xmlns="http://www.w3.org/2000/svg">
<rect width="40" height="40" rx="5" fill="#00AEEF"/>
<path d="M30.408 14.6211H24.2969" stroke="white" stroke-width="1.5" stroke-miterlimit="10" stroke-linecap="round" stroke-linejoin="round"/>
<path d="M14.1092 14.6211H10.0352" stroke="white" stroke-width="1.5" stroke-miterlimit="10" stroke-linecap="round" stroke-linejoin="round"/>
<path d="M18.1859 18.1843C20.1547 18.1843 21.7507 16.5883 21.7507 14.6195C21.7507 12.6507 20.1547 11.0547 18.1859 11.0547C16.2171 11.0547 14.6211 12.6507 14.6211 14.6195C14.6211 16.5883 16.2171 18.1843 18.1859 18.1843Z" stroke="white" stroke-width="1.5" stroke-miterlimit="10" stroke-linecap="round" stroke-linejoin="round"/>
<path d="M30.4061 25.8242H26.332" stroke="white" stroke-width="1.5" stroke-miterlimit="10" stroke-linecap="round" stroke-linejoin="round"/>
<path d="M16.1463 25.8242H10.0352" stroke="white" stroke-width="1.5" stroke-miterlimit="10" stroke-linecap="round" stroke-linejoin="round"/>
<path d="M22.2601 29.3874C24.2289 29.3874 25.8249 27.7914 25.8249 25.8226C25.8249 23.8538 24.2289 22.2578 22.2601 22.2578C20.2913 22.2578 18.6953 23.8538 18.6953 25.8226C18.6953 27.7914 20.2913 29.3874 22.2601 29.3874Z" stroke="white" stroke-width="1.5" stroke-miterlimit="10" stroke-linecap="round" stroke-linejoin="round"/>
</svg>
