<svg width="24" height="25" viewBox="0 0 24 25" fill="none" xmlns="http://www.w3.org/2000/svg">
<path d="M18.629 9.88031L18.6999 10.2963H19.1219H19.7452C20.3553 10.3132 20.8154 10.7912 20.8154 11.3602V13.96C20.8154 14.251 20.7077 14.5106 20.4947 14.7235C20.3079 14.9103 20.0306 15.0239 19.7515 15.0239H18.7563H18.2563V15.5239V16.1738C18.2563 17.8863 16.8571 19.2688 15.1613 19.2688H13.8208H13.4488L13.3419 19.6251C13.273 19.8548 13.0781 20 12.8865 20H10.4289C10.1702 20 9.954 19.7906 9.954 19.5251V18.8548C9.954 18.5961 10.1634 18.3799 10.4289 18.3799H12.8459C13.0778 18.3799 13.245 18.5221 13.2938 18.7269L13.3852 19.1111H13.7802H15.1207C16.7373 19.1111 18.0579 17.7905 18.0579 16.1738V11.0759C18.0579 7.52971 15.1734 4.64516 11.6272 4.64516C8.08109 4.64516 5.19654 7.52971 5.19654 11.0759V14.813C5.19654 14.9431 5.09542 15.0442 4.96535 15.0442H3.56392C3.2971 15.0442 3.03319 14.939 2.81463 14.7377C2.6057 14.5259 2.5 14.2685 2.5 13.9803V11.3602C2.5 10.7833 2.98701 10.2963 3.56392 10.2963H4.17324H4.59287L4.66566 9.88303C5.25434 6.54086 8.15962 4 11.6476 4C15.1376 4 18.06 6.54258 18.629 9.88031Z" fill="#7FD6F6" stroke="#7FD6F6"/>
</svg>
