<svg width="48" height="48" viewBox="0 0 48 48" fill="none" xmlns="http://www.w3.org/2000/svg">
<rect width="48" height="48" rx="24" fill="#00AEEF"/>
<path fill-rule="evenodd" clip-rule="evenodd" d="M24 16.5C24.4142 16.5 24.75 16.8358 24.75 17.25V23.25H30.75C31.1642 23.25 31.5 23.5858 31.5 24C31.5 24.4142 31.1642 24.75 30.75 24.75H24.75V30.75C24.75 31.1642 24.4142 31.5 24 31.5C23.5858 31.5 23.25 31.1642 23.25 30.75V24.75H17.25C16.8358 24.75 16.5 24.4142 16.5 24C16.5 23.5858 16.8358 23.25 17.25 23.25H23.25V17.25C23.25 16.8358 23.5858 16.5 24 16.5Z" fill="white"/>
</svg>
