<svg width="229" height="246" viewBox="0 0 229 246" fill="none" xmlns="http://www.w3.org/2000/svg">
<path d="M107.639 1.3858L147.964 64.471C148.5 65.3028 149.406 65.8204 150.385 65.8573L225.194 68.3896C227.689 68.482 229.001 71.384 227.412 73.3063L179.898 131.161C179.27 131.918 179.067 132.954 179.326 133.896L200.042 205.854C200.726 208.238 198.379 210.382 196.069 209.477L126.379 182.139C125.455 181.769 124.42 181.899 123.607 182.453L61.5859 224.393C59.5161 225.779 56.7624 224.208 56.9103 221.731L61.3456 146.964C61.4011 145.985 60.976 145.023 60.1998 144.414L1.15441 98.3888C-0.804535 96.8547 -0.157715 93.7309 2.24476 93.1209L74.6886 74.249C75.6496 74.0087 76.4258 73.2878 76.7584 72.3636L102.28 1.97728C103.13 -0.370166 106.29 -0.702875 107.639 1.3858Z" fill="url(#paint0_linear_2865_33517)"/>
<path d="M24.2368 163.135L32.1464 168.976C32.2573 169.05 32.3867 169.069 32.5161 169.032L41.8118 165.834C42.126 165.723 42.4216 166.019 42.3108 166.333L39.206 175.667C39.1691 175.797 39.1875 175.926 39.2615 176.037L45.1752 183.893C45.3785 184.151 45.1752 184.521 44.8611 184.521L35.0294 184.447C34.9001 184.447 34.7707 184.503 34.6968 184.614L29.0602 192.673C28.8754 192.931 28.4503 192.876 28.3579 192.562L25.401 183.19C25.3641 183.061 25.2717 182.969 25.1423 182.932L15.7357 180.067C15.4215 179.974 15.3476 179.567 15.6248 179.364L23.6269 173.653C23.7378 173.579 23.7932 173.449 23.7932 173.32L23.6269 163.487C23.5899 163.135 23.978 162.951 24.2368 163.135Z" fill="url(#paint1_linear_2865_33517)"/>
<path d="M214.736 131.142L217.064 140.698C217.101 140.828 217.194 140.92 217.305 140.976L226.49 144.487C226.804 144.598 226.841 145.023 226.563 145.19L218.192 150.347C218.081 150.421 218.007 150.532 218.007 150.661L217.508 160.476C217.49 160.809 217.101 160.975 216.861 160.753L209.358 154.395C209.266 154.302 209.118 154.284 209.007 154.321L199.508 156.89C199.194 156.982 198.917 156.668 199.046 156.354L202.779 147.26C202.834 147.149 202.816 147.001 202.742 146.89L197.364 138.647C197.179 138.369 197.401 138.018 197.715 138.037L207.51 138.776C207.639 138.794 207.769 138.739 207.843 138.628L214.015 130.976C214.255 130.735 214.662 130.828 214.736 131.142Z" fill="url(#paint2_linear_2865_33517)"/>
<path d="M122.626 214.115C123.642 211.675 127.616 210.215 127.616 210.215L136.283 213.727C136.283 213.727 135.285 219.586 134.989 225.519C134.694 231.453 129.427 249.622 122.848 245.242C116.25 240.861 121.609 216.573 122.626 214.115Z" fill="white"/>
<path d="M133.477 233.229C131.408 240.327 127.453 248.312 122.851 245.244C120.153 243.451 119.451 238.294 119.654 232.675C123.941 230.568 129.024 230.882 133.477 233.229Z" fill="#F3F4EF"/>
<path d="M124.882 246C124.18 246 123.478 245.778 122.794 245.316C120.41 243.726 119.32 239.475 119.56 232.691V232.654L119.597 232.636C123.829 230.547 128.893 230.751 133.494 233.19L133.55 233.227L133.531 233.283C132.921 235.39 131.886 238.458 130.426 241.12C129.022 243.689 127.544 245.26 126.047 245.815C125.658 245.926 125.27 246 124.882 246ZM119.708 232.728C119.486 239.438 120.539 243.634 122.868 245.186C123.903 245.87 124.938 246.018 125.991 245.649C128.634 244.687 131.406 240.048 133.383 233.264C128.856 230.898 123.884 230.695 119.708 232.728Z" fill="#BFBFBE"/>
<path d="M122.625 214.116C122.995 213.211 123.789 212.434 124.64 211.824C124.381 212.397 124.177 212.97 123.956 213.506C122.958 215.798 122.256 218.183 121.849 220.659C120.962 225.78 120.315 231.158 121.091 236.334C121.516 239.106 122.348 244.43 126.099 244.504C126.876 244.522 127.615 244.374 128.317 244.078C126.672 245.871 124.824 246.574 122.865 245.261C116.249 240.862 121.609 216.575 122.625 214.116Z" fill="#B3B3B3"/>
<path d="M124.882 246C124.179 246 123.495 245.778 122.793 245.316C116.14 240.88 121.592 216.407 122.553 214.097C122.886 213.302 123.569 212.507 124.586 211.768L124.808 211.602L124.697 211.86C124.567 212.156 124.438 212.47 124.327 212.785C124.216 213.043 124.124 213.302 124.013 213.542C123.033 215.797 122.331 218.2 121.906 220.677C121.093 225.427 120.354 231.01 121.148 236.333C121.537 238.939 122.368 244.373 126.083 244.429C126.822 244.447 127.543 244.299 128.263 244.004L128.578 243.874L128.356 244.133C127.192 245.371 126.027 246 124.882 246ZM124.438 212.064C123.569 212.729 122.978 213.431 122.682 214.152C121.721 216.444 116.288 240.806 122.867 245.187C124.549 246.314 126.286 246 127.986 244.244C127.358 244.466 126.711 244.577 126.064 244.558C122.22 244.484 121.37 238.976 120.982 236.333C120.187 230.991 120.908 225.39 121.74 220.64C122.165 218.145 122.867 215.742 123.865 213.468C123.976 213.228 124.068 212.969 124.179 212.711C124.272 212.507 124.346 212.285 124.438 212.064Z" fill="#BFBFBE"/>
<path d="M129.022 204.578L125.973 208.977C125.973 208.977 129.318 216.352 137.412 214.319L140.018 212.212L129.022 204.578Z" fill="#282828"/>
<path d="M105.608 197.28C105.608 197.28 110.413 196.837 112.889 198.5C115.347 200.145 117.971 228.315 110.025 234.765C110.025 234.765 104.148 234.969 103.021 222.289C101.893 209.609 102.817 205.672 102.817 205.672L105.608 197.28Z" fill="white"/>
<path d="M114.719 223.709C113.979 228.534 112.538 232.729 110.025 234.763C110.025 234.763 104.776 234.948 103.242 224.282C106.643 222.194 110.653 221.861 114.719 223.709Z" fill="#F3F4EF"/>
<path d="M110.006 234.837C109.821 234.837 108.583 234.782 107.16 233.58C105.774 232.397 103.963 229.828 103.168 224.301V224.246L103.205 224.228C106.753 222.046 110.745 221.843 114.755 223.655L114.811 223.673V223.728C113.961 229.237 112.39 232.97 110.098 234.837L110.08 234.856H110.061C110.024 234.837 110.024 234.837 110.006 234.837ZM103.334 224.32C103.778 227.333 104.813 231.344 107.252 233.451C108.601 234.615 109.821 234.689 110.006 234.689C112.223 232.878 113.813 229.107 114.644 223.747C110.727 222.009 106.809 222.194 103.334 224.32Z" fill="#BFBFBE"/>
<path d="M108.727 233.262C111.24 231.747 112.016 227.458 112.349 224.723C113.014 219.621 112.848 214.316 112.386 209.233C112.164 206.867 111.831 204.464 111.425 202.136C111.166 200.527 110.593 199.03 110.113 197.496C111.129 197.681 112.109 197.995 112.885 198.513C115.343 200.158 117.967 228.327 110.02 234.778C110.02 234.778 108.154 234.852 106.324 232.634C107.248 233.521 107.987 233.724 108.727 233.262Z" fill="#B3B3B3"/>
<path d="M110.003 234.833C109.744 234.833 108.007 234.759 106.27 232.652L106.38 232.56C107.267 233.447 107.988 233.632 108.69 233.207C111.426 231.543 112.072 226.405 112.276 224.722C112.849 220.305 112.867 215.24 112.313 209.252C112.109 207.07 111.795 204.741 111.352 202.154C111.148 200.878 110.742 199.658 110.354 198.475C110.243 198.161 110.15 197.847 110.04 197.533L110.003 197.422L110.132 197.44C111.296 197.644 112.239 197.995 112.923 198.457C113.994 199.178 115.029 204.501 115.343 210.878C115.584 215.906 115.325 220.841 114.623 224.796C113.736 229.732 112.202 233.114 110.077 234.833L110.058 234.852H110.04C110.021 234.833 110.021 234.833 110.003 234.833ZM107.101 233.317C108.524 234.611 109.818 234.685 110.003 234.685C114.493 231.007 115.639 219.972 115.196 210.86C114.9 204.649 113.865 199.233 112.849 198.568C112.202 198.124 111.315 197.81 110.243 197.588C110.335 197.865 110.428 198.143 110.52 198.402C110.908 199.603 111.315 200.823 111.536 202.117C111.98 204.705 112.294 207.033 112.497 209.233C113.052 215.24 113.033 220.323 112.461 224.741C112.091 227.698 111.296 231.82 108.801 233.336C108.228 233.669 107.693 233.669 107.101 233.317Z" fill="#BFBFBE"/>
<path d="M103.13 195.227C103.13 195.227 106.623 195.763 107.473 196.816C107.473 196.816 108.36 203.082 104.608 206.705L100.469 206.853L103.13 195.227Z" fill="#282828"/>
<path d="M77.533 170.994C82.726 158.961 90.6172 149.424 90.6172 149.424L90.4509 146.965C95.6439 143.324 101.798 140.958 107.897 139.35C112.905 138.056 117.987 137.151 123.161 136.947C125.028 136.855 127.061 136.799 128.983 137.114C129.426 139.443 130.055 142.437 130.572 143.564C130.572 143.564 158.145 161.863 161.767 172.991C165.371 184.099 162.747 189.016 158.737 194.783C154.726 200.55 143.324 213.008 140.33 213.526C137.336 214.043 128.059 212.971 127.8 205.744C127.726 203.729 134.324 186.225 138.944 180.44C138.944 180.44 130.092 169.109 115.381 167.409C115.381 167.409 111.556 167.353 107.693 171.105C103.812 174.858 93.0566 188.517 93.0566 188.517C93.0566 188.517 100.929 189.829 103.018 191.77C105.106 193.711 106.067 198.48 102.87 204.228C99.6542 209.977 88.0299 210.79 81.5617 209.219C75.075 207.629 73.7629 204.672 72.4323 201.105C71.0463 197.537 72.3399 183.027 77.533 170.994Z" fill="#282828"/>
<path opacity="0.17" d="M78.7914 197.738C85.4814 196.351 88.2165 189.697 92.1899 184.891C93.8531 182.895 95.7566 181.121 97.4014 179.106C98.6026 177.627 100.007 175.927 100.063 173.931C100.081 173.764 99.9332 173.579 99.7669 173.561C97.4753 173.154 95.2022 173.672 92.9106 174.078C98.9353 170.825 105.274 167.849 111.983 166.519C115.919 165.724 119.966 165.613 123.958 165.724C126.804 165.816 130.001 165.613 132.903 166.038C130.814 166.463 128.689 166.648 126.822 167.812C126.619 167.942 126.619 168.164 126.693 168.367C127.432 169.957 129.909 170.511 131.332 171.435C133.42 172.785 135.397 174.282 137.393 175.779C140.923 178.459 144.508 181.065 148.685 182.673C152.048 183.949 157.075 185.039 160.439 183.136C161.899 182.285 162.767 181.047 163.303 179.624C164.116 186.352 161.843 190.326 158.738 194.799C154.728 200.566 143.326 213.024 140.332 213.541C137.338 214.059 128.061 212.987 127.802 205.76C127.728 203.745 134.326 186.241 138.946 180.455C138.946 180.455 130.094 169.125 115.383 167.424C115.383 167.424 111.557 167.369 107.695 171.121C103.814 174.873 93.0584 188.533 93.0584 188.533C93.0584 188.533 100.931 189.845 103.019 191.786C105.108 193.727 106.069 198.496 102.872 204.244C99.656 209.992 88.0317 210.806 81.5635 209.235C75.0768 207.645 73.7647 204.688 72.4341 201.12C72.0091 200.011 71.8612 197.83 71.9906 195.002C72.9331 197.22 74.966 198.533 78.7914 197.738Z" fill="black"/>
<path d="M141.036 111.699C141.738 109.684 142.792 108.058 143.827 106.283C147.264 107.023 153.252 108.021 157.816 107.041C157.816 107.041 162.289 100.257 162.862 90.9971C162.862 90.9971 159.794 89.389 160.755 85.6553C161.734 81.9031 161.808 81.0898 161.993 77.8736C162.048 76.7646 164.063 76.894 164.747 78.9826C164.747 78.9826 165.689 74.9347 168.923 77.8366C168.923 77.8366 170.309 77.2821 171.492 79.4447C171.492 79.4447 173.784 78.8717 173.414 82.6979C173.414 82.6979 175.539 83.0306 174.763 86.7643C173.987 90.5165 174.283 93.2152 168.295 94.1209C168.295 94.1209 168.627 106.357 163.508 114.582C158.371 122.789 140.112 117.817 140.112 117.817C140.112 117.817 140.075 117.799 140.02 117.78C140.149 115.747 140.352 113.714 141.036 111.699Z" fill="#156AE5"/>
<path d="M140.018 117.576C140.092 117.613 140.166 117.631 140.166 117.631C140.222 117.65 146.413 119.313 152.511 119.092C157.889 118.907 161.53 117.354 163.322 114.471C168.368 106.393 168.09 94.2309 168.09 94.12V93.9536L168.257 93.9352C173.413 93.1588 173.782 91.1071 174.318 88.0019C174.392 87.5952 174.466 87.1701 174.559 86.7265C174.854 85.3402 174.762 84.2312 174.3 83.5473C173.912 82.9927 173.413 82.9003 173.394 82.9003L173.21 82.8818L173.228 82.6785C173.357 81.4031 173.173 80.4789 172.729 79.9984C172.415 79.6841 172.027 79.6102 171.768 79.6287C171.639 79.6472 171.565 79.6472 171.565 79.6472L171.398 79.6841L171.325 79.5547C170.234 77.5585 169.014 78.0206 169.014 78.0206L168.904 78.076L168.811 78.0021C168.054 77.3182 167.37 76.9855 166.797 77.004C165.448 77.0594 164.967 79.0372 164.967 79.0372L164.801 79.7396L164.579 79.0557C164.21 77.8912 163.396 77.3737 162.787 77.3921C162.454 77.4106 162.232 77.5955 162.214 77.8912C162.029 81.0889 161.973 81.9022 160.975 85.7099C160.07 89.2588 162.86 90.7744 162.971 90.8299L163.082 90.9038V91.0332C162.509 100.238 158.056 107.114 158 107.188L157.963 107.244L157.871 107.262C156.854 107.484 155.708 107.613 154.433 107.65C150.571 107.798 146.376 107.077 143.733 106.504C143.807 106.375 143.862 106.264 143.936 106.134C146.561 106.689 150.645 107.391 154.415 107.244C155.616 107.207 156.725 107.077 157.686 106.874C158.148 106.134 162.084 99.6651 162.657 91.1071C162.084 90.7559 159.682 89.0185 160.569 85.599C161.53 81.8283 161.622 81.0335 161.789 77.8542C161.826 77.3552 162.195 77.004 162.75 76.9855C163.396 76.967 164.228 77.4106 164.727 78.3903C165.004 77.7064 165.596 76.6158 166.76 76.5789C167.425 76.5604 168.164 76.8931 168.959 77.5955C169.033 77.577 169.125 77.5585 169.255 77.5585C169.754 77.54 170.733 77.7433 171.583 79.222C171.62 79.222 171.676 79.222 171.731 79.222C172.027 79.222 172.563 79.2775 173.006 79.7211C173.524 80.2756 173.727 81.2183 173.635 82.5491C173.875 82.6231 174.281 82.8264 174.614 83.307C175.169 84.0833 175.261 85.2662 174.965 86.8004C174.873 87.244 174.799 87.6691 174.725 88.0758C174.171 91.1811 173.782 93.4546 168.516 94.3048C168.534 95.839 168.46 107.059 163.692 114.692C161.826 117.687 158.074 119.313 152.548 119.517C146.394 119.739 140.148 118.057 140.055 118.038C140.055 118.038 140.018 118.02 140 118.02C140 117.853 140.018 117.724 140.018 117.576Z" fill="#004BA5"/>
<path d="M170.474 87.0033C170.474 87.0033 170.363 87.2621 170.104 87.7242C169.975 87.946 169.827 88.2048 169.624 88.5005C169.439 88.7778 169.217 89.092 168.922 89.3508C168.644 89.6095 168.293 89.7759 167.924 89.7389C167.536 89.7204 167.221 89.5356 167.074 89.0181C166.926 88.519 166.926 87.946 167.018 87.3915C167.111 86.837 167.314 86.2825 167.536 85.7464C167.776 85.2104 168.035 84.6929 168.293 84.1938C168.552 83.6578 168.792 83.362 169.236 83.2881C169.679 83.1772 170.215 83.1957 170.696 83.1772C171.195 83.1772 171.675 83.1772 172.119 83.1402C172.581 83.1032 172.969 83.0663 173.302 83.0478C173.616 83.0478 173.874 83.1217 174.059 83.2511C174.244 83.3805 174.392 83.5284 174.466 83.6393C174.558 83.7317 174.614 83.7871 174.614 83.7871L174.688 83.7502C174.688 83.7502 174.669 83.6762 174.595 83.5469C174.54 83.4175 174.447 83.2141 174.263 83.0108C174.096 82.7705 173.745 82.6042 173.357 82.5118C172.969 82.4378 172.562 82.4378 172.137 82.4009C171.712 82.4009 171.232 82.3454 170.733 82.3269C170.474 82.3084 170.215 82.29 169.92 82.3084C169.772 82.3269 169.642 82.3269 169.495 82.3454C169.328 82.3639 169.199 82.4193 169.033 82.4563C168.885 82.4933 168.718 82.6042 168.571 82.6596C168.423 82.7521 168.275 82.8814 168.164 83.0108C167.942 83.2881 167.813 83.5838 167.702 83.8611C167.462 84.3971 167.314 84.9886 167.166 85.5616C167.037 86.1531 166.926 86.7261 166.815 87.2991C166.722 87.8721 166.649 88.4451 166.686 89.055C166.686 89.2029 166.741 89.3508 166.778 89.4986C166.852 89.6465 166.907 89.7944 167.037 89.9238C167.166 90.0532 167.332 90.201 167.443 90.238L167.61 90.3304L167.665 90.3489H167.683H167.702L167.757 90.3674L167.868 90.3859C168.515 90.4968 169.106 90.1456 169.421 89.7759C170.086 89.0365 170.289 88.2972 170.437 87.7796C170.566 87.2806 170.566 86.9664 170.566 86.9664L170.474 87.0033Z" fill="#004BA5"/>
<path d="M171.789 79.4276C171.789 79.4276 171.585 79.3906 171.234 79.3906C171.049 79.3906 170.828 79.3906 170.587 79.4091C170.329 79.4091 170.051 79.4646 169.756 79.52C169.46 79.6309 169.109 79.6864 168.795 79.8897C168.444 80.0376 168.148 80.3333 167.852 80.6106C167.353 81.1651 166.836 81.812 166.411 82.5144C166.189 82.8656 166.004 83.2353 165.856 83.6234C165.69 83.9931 165.579 84.3997 165.505 84.7694C165.413 85.1576 165.357 85.4903 165.32 85.8969C165.339 86.2481 165.302 86.5623 165.394 86.8951C165.45 87.2278 165.616 87.505 165.745 87.7268C165.819 87.8192 165.912 87.9117 165.986 88.0041C166.078 88.0595 166.17 88.115 166.244 88.1704C166.577 88.3368 166.78 88.3368 166.78 88.3368C166.78 88.3368 166.577 88.2629 166.337 88.041C166.281 87.9856 166.226 87.9301 166.152 87.8562C166.115 87.7638 166.06 87.6899 165.986 87.579C165.93 87.3571 165.838 87.1353 165.838 86.8581C165.801 86.6178 165.875 86.2851 165.912 85.9524C165.986 85.6751 166.078 85.3054 166.17 84.9727C166.281 84.6215 166.411 84.2888 166.559 83.9376C166.706 83.5865 166.891 83.2722 167.094 82.9395C167.279 82.6253 167.501 82.2926 167.723 81.9784C167.963 81.6641 168.185 81.3684 168.407 81.0727C168.647 80.8324 168.813 80.5736 169.09 80.4072C169.349 80.2039 169.626 80.1115 169.885 79.9821C170.162 79.8897 170.402 79.7788 170.643 79.7049C170.864 79.6494 171.068 79.5939 171.234 79.557C171.585 79.4646 171.789 79.4276 171.789 79.4276Z" fill="#004BA5"/>
<path d="M169.052 77.7817C169.052 77.7817 168.904 77.7632 168.627 77.7817C168.498 77.8001 168.332 77.8186 168.165 77.8926C167.98 77.948 167.759 78.0035 167.574 78.1513C167.352 78.2622 167.13 78.3916 166.946 78.5949C166.853 78.6874 166.742 78.7798 166.631 78.8722C166.539 78.9831 166.465 79.094 166.354 79.2234C166.169 79.4637 166.003 79.7225 165.874 79.9997C165.726 80.277 165.596 80.5727 165.504 80.85C165.097 81.996 164.839 83.2159 164.894 84.1586C164.913 84.6207 165.042 85.0273 165.208 85.2491C165.301 85.3785 165.412 85.4155 165.467 85.4524C165.541 85.4709 165.578 85.4894 165.578 85.4894C165.578 85.4894 165.43 85.4155 165.338 85.1752C165.264 84.9534 165.264 84.6022 165.338 84.1955C165.486 83.3453 165.855 82.2363 166.243 81.1457C166.336 80.85 166.447 80.5912 166.557 80.3509C166.613 80.2215 166.668 80.1106 166.724 79.9812C166.779 79.8703 166.872 79.7594 166.927 79.6485C167.001 79.5376 167.056 79.4267 167.13 79.3158C167.204 79.2234 167.278 79.131 167.371 79.0386C167.518 78.8537 167.666 78.6874 167.833 78.558C168.147 78.2807 168.442 78.0959 168.701 77.985C168.904 77.8371 169.052 77.7817 169.052 77.7817Z" fill="#004BA5"/>
<path d="M164.599 84.3075C164.599 84.3075 164.673 84.2521 164.784 84.1042C164.895 83.9748 165.043 83.7715 165.172 83.4943C165.246 83.3649 165.301 83.217 165.375 83.0506C165.431 82.8843 165.505 82.7179 165.542 82.5331C165.56 82.3483 165.634 82.1449 165.634 81.9601C165.653 81.7568 165.671 81.5719 165.653 81.3501C165.634 81.1468 165.634 80.9435 165.616 80.7402C165.597 80.5368 165.523 80.352 165.468 80.1672C165.412 79.9823 165.357 79.816 165.301 79.6496C165.264 79.4833 165.154 79.3354 165.08 79.2245C164.747 78.7069 164.488 78.4297 164.488 78.4297C164.488 78.4297 164.525 78.8363 164.655 79.3908C164.673 79.5202 164.729 79.6681 164.729 79.8345C164.747 80.0008 164.765 80.1487 164.784 80.3335C164.802 80.4999 164.858 80.6662 164.858 80.8511C164.858 81.0174 164.858 81.2023 164.858 81.3871C164.876 81.5719 164.876 81.7383 164.858 81.9231C164.839 82.108 164.839 82.2743 164.839 82.4407C164.802 82.7919 164.784 83.1061 164.729 83.3649C164.692 83.6606 164.655 83.8824 164.636 84.0488C164.618 84.2151 164.599 84.3075 164.599 84.3075Z" fill="#004BA5"/>
<path d="M166.945 93.8624C166.945 93.8624 167.149 93.9918 167.481 94.0842C167.814 94.195 168.294 94.2505 168.756 94.232C168.978 94.2135 169.218 94.2135 169.44 94.1396C169.643 94.0842 169.847 94.0287 170.013 93.9363C170.327 93.7885 170.512 93.6406 170.512 93.6406C170.512 93.6406 170.272 93.6591 169.939 93.733C169.773 93.7885 169.588 93.77 169.385 93.7885C169.181 93.8254 168.96 93.8254 168.738 93.8439C168.516 93.8809 168.294 93.8624 168.091 93.8624C167.888 93.8439 167.685 93.8809 167.518 93.8624C167.186 93.8624 166.945 93.8624 166.945 93.8624Z" fill="#004BA5"/>
<path d="M157.965 106.762C157.965 106.762 157.743 107.094 157.374 107.538C157.022 108 156.523 108.573 155.969 109.072C155.692 109.312 155.378 109.534 155.1 109.737C154.953 109.83 154.823 109.922 154.675 109.996C154.528 110.051 154.398 110.144 154.269 110.199C154.01 110.292 153.77 110.402 153.622 110.421C153.456 110.476 153.363 110.495 153.363 110.495C153.363 110.495 153.456 110.495 153.64 110.495C153.807 110.495 154.066 110.476 154.361 110.402C154.509 110.384 154.657 110.31 154.823 110.255C154.99 110.218 155.137 110.125 155.304 110.033C155.655 109.866 155.969 109.626 156.265 109.367C156.542 109.09 156.819 108.795 157.041 108.499C157.281 108.203 157.447 107.908 157.595 107.649C157.854 107.15 157.965 106.762 157.965 106.762Z" fill="#004BA5"/>
<path d="M71.3442 9.29961C71.4736 5.62133 73.525 6.60097 73.525 6.60097C74.1348 2.83027 76.4634 4.41988 76.4634 4.41988C77.8124 1.16673 80.3443 2.40515 80.3443 2.40515C82.0075 0.00225168 83.486 0.408895 84.9275 3.23692C86.369 6.06494 86.332 8.68964 86.332 8.68964C88.2909 9.28112 87.1082 11.8689 86.9418 14.6229C86.7755 17.377 87.0712 18.3752 85.3525 19.17C83.6523 19.9648 83.6338 19.9648 83.4675 20.4453C80.3628 28.5043 82.6728 46.8587 84.1328 57.5239C85.0014 63.9008 87.9952 71.3128 90.2684 76.2664C89.2889 77.893 88.1985 79.7784 86.8494 81.2571C86.4244 81.6637 85.9624 82.0704 85.5188 82.4585C68.72 58.1708 76.5558 20.279 76.5558 20.279C76.5558 20.279 72.5455 20.7596 71.9726 17.5064C71.3997 14.2533 72.4346 11.9428 72.4346 11.9428C71.8247 11.2219 71.3258 10.2423 71.3442 9.29961Z" fill="#156AE5"/>
<path d="M71.1586 9.29718C71.2325 6.85732 72.1565 6.32129 72.8957 6.3028C73.0806 6.28432 73.2469 6.32129 73.3762 6.35826C73.7459 4.39897 74.6514 3.93688 75.3352 3.91839C75.7787 3.89991 76.1483 4.04778 76.3886 4.15868C77.1648 2.4212 78.3106 2.01456 79.1237 1.99608C79.6412 1.97759 80.0662 2.10698 80.2695 2.1994C80.9902 1.20127 81.674 0.70221 82.3948 0.665242C83.3373 0.628275 84.2243 1.46005 85.1114 3.17904C86.3681 5.67436 86.5159 7.96635 86.5344 8.55783C87.9944 9.09386 87.7172 10.702 87.4215 12.5318C87.3106 13.2158 87.1997 13.9366 87.1443 14.6575C87.1073 15.1196 87.1073 15.5262 87.0888 15.8959C87.0334 17.7258 86.9964 18.65 85.4441 19.3709C83.7993 20.1287 83.7993 20.1287 83.6514 20.5353C80.4173 28.9085 83.1525 48.9634 84.3167 57.503C85.1668 63.769 88.1237 71.107 90.3968 76.0792C90.3229 76.2086 90.2305 76.3564 90.1566 76.4858C87.865 71.4952 84.7972 63.9723 83.9286 57.5584C82.7644 48.9634 80.0108 28.8531 83.2818 20.3875C83.5036 19.8514 83.5406 19.8145 85.2777 19.0012C86.5898 18.3912 86.6268 17.7073 86.6823 15.8774C86.7007 15.5077 86.7007 15.1011 86.7377 14.639C86.7931 13.8812 86.904 13.1788 87.0149 12.4764C87.3476 10.4432 87.4769 9.2787 86.2572 8.90902L86.1278 8.87206V8.68722C86.1278 8.66873 86.1463 6.09948 84.7418 3.3454C83.9656 1.79275 83.1525 1.01643 82.3948 1.0534C81.8034 1.07189 81.175 1.57095 80.5097 2.53211L80.4173 2.66149L80.251 2.58756C80.251 2.58756 79.7705 2.34727 79.1237 2.36575C78.0518 2.40272 77.2017 3.14207 76.6473 4.49139L76.5549 4.73168L76.3516 4.58381C76.3516 4.58381 75.8711 4.26959 75.3352 4.28807C74.3003 4.32504 73.8937 5.58194 73.7089 6.63551L73.6719 6.89429L73.4317 6.78338C73.4132 6.78338 73.1914 6.67248 72.8957 6.69097C72.0641 6.70945 71.5836 7.61516 71.5282 9.31567C71.5097 10.092 71.8978 11.0347 72.5816 11.811L72.674 11.9034L72.6185 12.0143C72.6001 12.0328 71.6021 14.3248 72.175 17.467C72.6185 19.9623 75.1689 20.1472 76.2407 20.1102C76.4255 20.0917 76.5364 20.0917 76.5364 20.0917L76.8136 20.0548L76.7582 20.332C76.6843 20.7202 69.1627 58.3532 85.7028 82.3267C85.5919 82.4191 85.4995 82.4931 85.3886 82.604C69.4399 59.5362 75.6678 23.9179 76.3147 20.4984C75.4645 20.5353 72.3044 20.4799 71.7869 17.541C71.2695 14.639 72.0087 12.4949 72.212 11.9773C71.5282 11.1456 71.1216 10.1474 71.1586 9.29718Z" fill="#004BA5"/>
<path d="M71.4189 10.6294C71.6222 11.609 72.5647 12.6811 73.5626 12.9399C74.3942 13.1617 74.8193 12.5332 75.0226 11.8493C75.7988 12.4963 77.4435 12.5702 77.6283 11.4796C78.2752 11.9417 79.0513 12.0896 79.7721 11.4981C79.7721 11.5166 79.7721 11.5166 79.7721 11.5166C79.9199 11.7199 80.1232 12.0342 80.3819 12.2005C79.9754 12.5332 79.6242 12.8659 79.3655 13.3465C78.7926 14.4371 79.2731 15.7124 79.846 16.6736C79.883 16.7475 79.9939 16.7106 79.9754 16.6181C79.7351 15.8049 79.4764 14.7143 79.809 13.8825C80.1047 13.1062 80.7516 12.755 81.4169 12.3114C82.0452 11.8863 82.7105 11.4612 82.8768 10.7033C83.0062 10.7403 83.1356 10.7773 83.2464 10.7957C83.3573 10.8142 83.4682 10.6664 83.3388 10.5924C82.4333 10.0749 81.4353 9.64975 80.5298 9.1322C80.1417 8.92888 79.8091 8.68859 79.4949 8.41133C78.6263 7.56108 78.7741 6.84021 79.9754 6.08238C80.5668 6.02692 81.1397 6.10086 81.6941 6.32267C83.5421 6.98808 85.1315 8.09711 86.7947 9.09524C86.8686 9.15069 86.9795 9.03978 86.9056 8.96585C85.9631 8.11559 84.9097 7.41321 83.8193 6.80324C83.9672 6.21176 83.8563 5.54635 83.7824 4.93638C83.69 4.21551 83.6715 3.60555 83.4128 2.92164C83.3943 2.86619 83.3388 2.90316 83.3204 2.94013C83.191 3.71645 83.1725 4.49277 83.1725 5.26909C83.1725 5.65725 83.1356 6.06389 83.2095 6.43357C82.7844 6.19328 82.3594 5.95299 81.9343 5.73118C81.1951 5.32454 80.3819 5.15819 79.6612 5.37999C79.7721 4.78851 79.883 4.21551 80.1047 3.661C80.4004 2.90316 80.8994 2.27471 81.2136 1.51688C81.2321 1.47991 81.1951 1.46142 81.1766 1.47991C79.6612 2.07139 79.0513 4.28945 78.9035 5.80512C78.8111 5.87905 78.7187 5.97147 78.6263 6.08238C77.6099 7.24686 78.0904 8.2265 79.0698 8.98433C78.9405 9.64975 79.2177 10.4815 79.5503 11.1285C77.2033 11.8124 76.2608 8.48527 76.3347 6.80324C76.3901 5.65725 76.8706 4.65912 76.9261 3.53161C76.9261 3.51313 76.8891 3.51313 76.8891 3.51313C75.4661 5.21364 75.1704 7.87531 76.2793 9.87156C76.501 10.2967 76.8152 10.7403 77.2033 11.0915C76.3901 12.7735 74.5606 10.5 74.191 9.63127C73.7105 8.57769 73.6181 7.5426 73.5996 6.3966C73.5996 6.32266 73.4702 6.26721 73.4333 6.34115C72.5647 8.06014 73.4887 10.1673 74.7084 11.4981C74.579 11.7199 74.4682 12.0157 74.3018 12.1451C73.8398 12.4778 73.3593 12.2005 72.9528 11.8863C72.4168 11.4796 72.1396 10.9066 71.6776 10.4446C71.5667 10.3891 71.3819 10.4815 71.4189 10.6294ZM79.6242 9.40946C80.4559 9.90852 81.4723 10.3152 82.267 10.5555C82.267 10.5739 82.2485 10.5739 82.2485 10.6109C82.1746 11.1839 81.4169 11.5906 80.8624 11.9048C80.4374 11.7015 80.1971 11.1839 79.9939 10.7773C79.846 10.4446 79.6982 10.1118 79.6612 9.76065C79.6427 9.63127 79.6427 9.52036 79.6242 9.40946Z" fill="#004BA5"/>
<path d="M83.4671 119.516C83.4671 119.516 83.2823 134.247 83.7812 137.63C84.2802 141.012 84.8346 148.295 85.0749 148.72C85.3151 149.145 86.7751 150.143 86.7751 150.143L87.773 151.548C87.773 151.548 112.519 143.84 130.666 141.992L131.128 138.85C131.128 138.85 132.884 138.037 133.013 137.075C133.143 136.114 131.147 129.386 131.147 129.386L124.309 98.5181L103.888 91.5312L95.1283 99.4793L83.4671 119.516Z" fill="url(#paint3_linear_2865_33517)"/>
<path d="M128.098 90.3874C127.969 90.3504 127.858 90.3134 127.729 90.2765C126.176 89.8513 124.568 89.685 122.979 89.6295C122.055 89.5926 121.131 89.611 120.207 89.648C120.78 96.5055 123.256 121.292 129.928 129.573C129.928 129.573 132.035 132.974 133.31 130.553C134.363 128.519 130.852 102.235 128.098 90.3874Z" fill="#1A1A1A"/>
<path d="M106.902 85.2839C104.98 84.4521 102.965 83.8976 100.859 83.6758C93.7806 93.8973 79.8648 117.242 79.5506 119.664C79.181 122.51 82.2303 120.2 82.2303 120.2C90.639 115.228 104.278 92.6219 107.992 86.3005C107.715 86.0417 107.438 85.7645 107.161 85.5057C107.068 85.4317 106.976 85.3578 106.902 85.2839Z" fill="#1A1A1A"/>
<path d="M162.194 92.5312C162.194 92.5312 164.171 99.1115 168.736 95.618V98.0579C168.736 98.0579 169.844 98.52 169.9 100.184C169.955 101.847 168.477 112.882 163.007 117.004C157.518 121.126 149.775 123.362 146.319 123.75C142.863 124.139 133.512 128.205 133.512 128.205C133.512 128.205 130.832 103.289 129.113 99.0375C129.113 99.0375 131.054 99.2778 132.31 99.9617C133.549 100.664 153.286 103.899 155.319 104.952C155.319 104.952 156.945 98.0209 158.608 96.0986C158.608 96.0986 159.588 95.2484 160.881 95.1929L162.194 92.5312Z" fill="url(#paint4_linear_2865_33517)"/>
<path d="M130.905 92.8618C130.905 92.8618 133.233 93.9523 134.157 96.1149C135.081 98.259 133.196 100.2 131.829 99.7562C130.461 99.3126 120.722 101.494 116.564 102.067C112.406 102.64 101.151 91.993 100.486 89.202C99.8203 86.4294 98.9332 84.544 99.3213 83.8786C99.7094 83.2317 130.627 92.9357 130.627 92.9357L130.905 92.8618Z" fill="url(#paint5_linear_2865_33517)"/>
<path d="M149.169 42.04C149.907 39.2258 148.223 36.3465 145.41 35.609C142.596 34.8715 139.717 36.555 138.98 39.3692C138.242 42.1835 139.926 45.0627 142.739 45.8003C145.553 46.5378 148.432 44.8543 149.169 42.04Z" fill="#1A1A1A"/>
<path d="M121.777 43.9762C121.777 43.9762 122.369 42.9781 123.256 42.6084C124.161 42.2387 135.139 44.4938 136.599 44.6971C138.059 44.8819 139.907 45.7507 139.001 44.1426C138.096 42.5345 130.204 39.0595 130.204 39.0595C130.204 39.0595 131.553 39.4662 134.085 40.0761C136.599 40.6861 138.188 38.6159 140.517 39.2628C142.845 39.9098 143.473 39.115 143.473 39.115C141.348 37.2111 137.744 36.6381 131.923 35.7694C128.301 35.2334 125.27 35.067 123.219 35.03C120.594 34.6973 110.227 33.7177 101.264 40.6122C97.3829 43.588 95.0728 47.0445 93.7422 49.5029C100.543 48.5787 110.356 48.0057 121.907 50.0019C134.492 52.183 144.213 56.5452 150.496 59.9832L121.777 43.9762Z" fill="url(#paint6_linear_2865_33517)"/>
<path d="M140.517 39.2619C138.188 38.615 136.617 40.6852 134.085 40.0752C131.572 39.4652 130.204 39.0586 130.204 39.0586C130.204 39.0586 138.096 42.5335 139.001 44.1416C139.907 45.7497 138.059 44.881 136.599 44.6962C135.139 44.5113 124.161 42.2378 123.256 42.6075C122.35 42.9772 121.777 43.9753 121.777 43.9753L150.496 59.9638C150.496 59.9638 150.478 59.095 150.108 57.2651C149.757 55.4537 149.018 54.622 149.018 54.622C146.486 48.5223 146.079 47.3024 146.079 47.3024C144.453 42.2378 145.636 42.016 144.435 40.2416C144.157 39.8164 143.825 39.4468 143.455 39.114C143.474 39.114 142.827 39.9273 140.517 39.2619Z" fill="url(#paint7_linear_2865_33517)"/>
<path d="M140.517 39.2619C138.188 38.615 136.617 40.6852 134.085 40.0752C131.572 39.4652 130.204 39.0586 130.204 39.0586C130.204 39.0586 138.096 42.5335 139.001 44.1416C139.907 45.7497 138.059 44.881 136.599 44.6962C135.139 44.5113 124.161 42.2378 123.256 42.6075C122.35 42.9772 121.777 43.9753 121.777 43.9753L150.496 59.9638C150.496 59.9638 150.478 59.095 150.108 57.2651C149.757 55.4537 149.018 54.622 149.018 54.622C146.486 48.5223 146.079 47.3024 146.079 47.3024C144.453 42.2378 145.636 42.016 144.435 40.2416C144.157 39.8164 143.825 39.4468 143.455 39.114C143.474 39.114 142.827 39.9273 140.517 39.2619Z" fill="url(#paint8_linear_2865_33517)"/>
<path d="M149.441 80.849L149.478 70.4056L141.679 59.2414L123.716 48.3359L98.3236 53.6223L91.0793 63.2709C91.0793 63.2709 89.2127 75.3962 98.028 82.1983C98.028 82.1983 122.127 73.6772 132.291 92.5122C132.272 92.5307 144.987 91.5141 149.441 80.849Z" fill="url(#paint9_radial_2865_33517)"/>
<path opacity="0.21" d="M108.562 74.0129C108.857 73.7726 109.19 73.366 109.412 72.5712C110.022 70.501 109.689 66.8967 107.693 64.0686C107.342 63.5696 106.917 63.1444 106.455 62.8672C105.124 62.0909 103.516 62.9042 102.962 63.1444C101.077 64.0132 100.227 65.6767 99.9496 66.3052C100.079 66.1203 100.282 66.0464 100.467 66.0834C100.578 66.1203 100.652 66.1943 100.67 66.2312C100.227 66.6748 99.7094 67.2663 99.2289 68.0242C98.6745 68.8929 98.3233 69.7062 98.1016 70.3531C98.5081 71.0555 99.2104 72.0536 100.375 72.9039C100.781 73.1996 101.188 73.4214 101.557 73.6063C101.262 73.6248 100.966 73.6432 100.652 73.6617C101.262 73.976 102.186 74.3641 103.35 74.512C103.978 74.5859 104.551 74.5859 105.013 74.5489C104.902 74.6414 104.81 74.7523 104.699 74.8447C105.697 74.9186 106.473 74.7892 106.991 74.6599C107.638 74.512 108.118 74.4011 108.562 74.0129Z" fill="black"/>
<path d="M114.96 72.4775C114.128 73.5126 112.76 73.7713 112.335 73.8453C111.541 73.9931 110.875 73.9192 110.45 73.8453C110.672 74.0486 110.894 74.2704 111.116 74.4737C111.208 74.5661 111.3 74.6401 111.393 74.7325C108.288 74.6585 105.017 74.6031 102.319 76.1557C102.707 76.1188 103.114 76.1003 103.502 76.0633C101.524 77.2093 99.0663 77.4496 96.9041 76.7103C97.0889 77.0614 97.3661 77.3757 97.7172 77.5975C96.8486 77.6529 95.9616 77.5051 95.1484 77.2093C95.7583 78.6326 96.479 80.0189 97.3291 81.3312C97.7357 81.9597 98.1792 82.6066 98.8261 82.9763C99.7871 83.5493 100.97 83.4384 102.079 83.4568C105.904 83.4753 109.582 84.8986 113.167 86.2479C118.914 88.392 124.717 90.3513 130.576 92.1257C131.333 92.3476 132.091 92.5878 132.867 92.5139C133.773 92.44 134.604 91.9964 135.381 91.5343C136.915 90.6655 138.411 89.7413 139.89 88.7987C137.709 89.2238 135.621 87.9299 133.791 86.673C134.42 86.8209 135.122 86.7285 135.695 86.4512C134.678 85.1389 133.237 83.5677 131.259 82.0521C129.91 81.017 128.598 80.2407 127.452 79.6677C127.914 79.5383 128.377 79.3904 128.839 79.261C124.995 77.8378 123.812 76.2851 123.572 74.9728C123.22 73.0135 124.828 70.6291 124.44 70.4073C124.237 70.2964 123.849 70.9988 122.943 71.1281C122.574 71.1836 122.204 71.1281 121.687 70.9248C119.765 70.2224 119.506 69.1319 118.027 68.7807C117.547 68.6698 116.826 68.5034 116.253 68.8916C115.255 69.5755 116.068 71.1097 114.96 72.4775Z" fill="#156AE5"/>
<path d="M102.094 55.9907C103.775 56.3419 108.34 57.5064 111.87 61.6283C117.821 68.5967 115.381 77.6353 115.16 78.4301C117.1 78.8552 119.022 79.2988 120.962 79.724C122.515 72.5153 127.726 66.9886 134.176 65.7317C139.813 64.6227 144.396 67.1734 145.763 68.0052C145.948 67.2659 146.133 66.545 146.318 65.8056C145.579 64.8815 130.868 47.2294 112.942 50.9262C110.207 51.4992 106.307 52.7746 102.094 55.9907Z" fill="#156AE5"/>
<path d="M98.0117 82.1993C98.0117 82.1993 101.116 85.7297 101.967 89.0013L104.85 88.3914L108.361 95.101L114.016 93.5299L116.16 96.5612L121.944 94.2507V96.8939C121.944 96.8939 127.156 93.5668 132.275 92.5317C122.11 73.6967 98.0117 82.1993 98.0117 82.1993Z" fill="#156AE5"/>
<path opacity="0.21" d="M112.057 78.949C111.595 79.0968 111.244 79.2817 111.004 79.4295C111.484 81.2225 112.15 83.2372 113.055 85.3628C113.702 86.897 114.386 88.2833 115.07 89.5217C116.493 88.7823 118.063 87.8397 119.69 86.6752C121.538 85.3628 123.09 84.0135 124.347 82.7936C124.236 82.6827 124.07 82.5163 123.866 82.3315C123.312 81.814 121.815 80.5755 117.454 79.4111C113.942 78.4869 112.76 78.7272 112.057 78.949Z" fill="black"/>
<path d="M91.6907 72.3854C91.6537 72.1821 91.5983 71.8679 91.5243 71.4797C91.3395 70.537 91.2102 69.7977 91.1917 69.7237C90.933 68.319 91.358 65.5279 91.4689 65.0843C92.1157 62.2563 102.687 52.0717 117.841 52.5892C129.169 52.9774 141.681 59.2804 146.892 70.574C148.389 73.8086 149.239 77.2836 149.442 80.8695C149.295 81.1652 149.147 81.4794 148.999 81.7937C148.611 82.5515 148.223 83.2539 147.816 83.9008C148.001 83.8823 148.278 83.8269 148.574 83.679C148.574 83.679 149.258 83.2724 149.868 82.3851C150.792 81.0358 153.453 72.866 152.677 68.6332C151.9 64.4004 151.549 60.3524 150.773 59.4467C144.674 52.3859 137.393 47.728 131.572 45.8057C131.572 45.8057 115.106 40.3345 97.6414 47.4507C95.5531 48.301 93.3724 49.41 91.5428 51.5911C87.8282 56.0272 88.2718 61.5908 88.6414 66.2303C88.8077 68.3744 89.2882 70.2967 90.7297 71.6645C91.0993 71.9972 91.4689 72.2375 91.6907 72.3854Z" fill="#1A1A1A"/>
<path d="M116.141 52.5541C116.51 52.4247 116.88 52.2953 117.249 52.1474C118.95 51.482 120.502 50.7611 121.907 49.9848L121.87 51.7593C121.87 51.7593 125.64 49.3379 129.798 49.4118C129.798 49.4118 128.892 51.9071 129.243 53.1455C129.243 53.1455 130.334 52.4432 132.385 52.4432C132.182 52.8498 131.96 53.3858 131.812 54.0513C131.646 54.7906 131.627 55.4191 131.627 55.8996C129.243 56.3617 127.377 56.8978 126.065 57.3229C124.734 57.7665 124.032 58.0622 123.052 57.8404C121.814 57.5447 121.297 56.639 120.003 55.3821C119.19 54.5873 117.933 53.5337 116.141 52.5541Z" fill="#156AE5"/>
<path d="M111.152 79.3139C112.538 82.068 113.906 84.8221 115.292 87.5946C115.403 87.8349 115.699 87.9089 115.939 87.7795C118.748 86.0605 121.538 84.3415 124.347 82.641C123.941 81.994 123.294 81.1068 122.296 80.2381C121.575 79.6096 120.374 78.5745 118.471 78.057C118.009 77.9276 116.345 77.5394 114.257 78.0015C112.834 78.2973 111.781 78.8888 111.152 79.3139Z" fill="#1A1A1A"/>
<path d="M108.325 66.7267C108.159 66.2092 107.438 64.139 105.627 63.566C104.814 63.3072 104.019 63.4366 103.557 63.5845C101.524 64.2499 100.175 66.8931 100.249 70.1832C100.656 72.5491 102.799 74.1387 104.962 73.8985C106.847 73.6767 108.417 72.124 108.695 70.0908C108.713 69.7951 108.732 69.3884 108.695 68.9078C108.695 68.5751 108.639 67.614 108.325 66.7267Z" fill="#1A1A1A"/>
<path d="M111.539 79.3915C112.075 79.0588 114.755 77.5246 118.192 78.3194C121.907 79.1697 123.662 82.0901 123.94 82.5892C121.241 84.2712 118.562 85.9532 115.864 87.6352C115.697 87.7462 115.475 87.6722 115.383 87.4874C114.108 84.7887 112.833 82.0901 111.539 79.3915Z" fill="#342954"/>
<path d="M111.539 79.3896L114.2 84.9902C114.976 83.9181 115.198 82.9939 115.235 82.347C115.291 81.3858 115.013 80.8868 115.217 80.0365C115.438 79.1123 116.067 78.4654 116.584 78.0772C115.974 78.0403 115.087 78.0588 114.089 78.299C112.944 78.5763 112.093 79.0384 111.539 79.3896Z" fill="url(#paint10_linear_2865_33517)"/>
<path d="M114.237 79.2812C114.237 79.2812 113.812 79.3182 113.535 79.5215C113.535 79.5215 114.016 79.5585 114.274 79.7248C114.293 79.7248 114.441 79.4845 114.237 79.2812Z" fill="#5C519E"/>
<path d="M121.113 81.0898C121.113 81.0898 121.464 81.3301 121.612 81.6443C121.612 81.6443 121.168 81.441 120.873 81.441C120.854 81.441 120.836 81.1638 121.113 81.0898Z" fill="#5C519E"/>
<path d="M118.118 81.0896C118.026 81.5146 117.933 81.9581 118.007 82.3832C118.026 82.4571 118.044 82.5126 118.081 82.568C118.174 82.6419 118.285 82.5865 118.395 82.531C119.153 82.1245 119.837 81.5516 120.354 80.8493C120.576 80.5721 120.761 80.221 120.669 79.8883C120.595 79.6111 120.336 79.4263 120.096 79.26C119.763 79.0197 118.894 78.336 118.673 78.9458C118.432 79.6296 118.266 80.3688 118.118 81.0896Z" fill="#463B72"/>
<path d="M100.71 69.7955C100.71 69.7955 100.488 65.1931 103.723 63.8438C103.723 63.8438 102.226 64.6755 102.096 65.6367C102.096 65.6367 102.318 64.9713 103.187 64.4722C103.187 64.4722 102.115 65.1561 101.93 67.2817C101.745 69.4074 101.745 69.4813 101.745 69.4813L100.895 69.7216C100.877 69.4628 100.877 69.2041 100.895 68.9083C100.914 68.4462 100.969 68.0396 101.043 67.6699C101.006 67.7993 100.969 67.9472 100.932 68.095C100.784 68.7235 100.729 69.278 100.71 69.7955Z" fill="#156AE5"/>
<path d="M101.022 69.8715C101.022 69.8715 100.542 64.4558 104.478 63.7349C104.478 63.7164 101.115 64.16 101.022 69.8715Z" fill="#00AEEF"/>
<path d="M107.234 65.8954C106.956 65.803 106.642 65.8214 106.347 65.8584C106.125 65.8954 105.885 65.9693 105.718 66.1356C105.552 66.3019 105.497 66.5976 105.644 66.7824C105.774 66.9488 105.977 66.9857 106.18 67.0042C106.531 67.0596 106.883 67.1151 107.234 67.152C107.345 67.1705 107.455 67.189 107.585 67.152C107.733 67.1151 107.88 67.0042 107.936 66.8564C108.102 66.4683 107.585 66.0063 107.234 65.8954Z" fill="white"/>
<path d="M101.505 69.3008C101.597 69.3008 101.708 69.3008 101.8 69.3747C101.874 69.4301 101.93 69.5595 101.874 69.6334C101.837 69.6704 101.8 69.7074 101.745 69.7258C101.505 69.8367 101.227 69.9106 100.95 69.9476C100.692 69.9846 100.266 69.8182 100.618 69.5595C100.876 69.3932 101.209 69.3008 101.505 69.3008Z" fill="white"/>
<path d="M106.584 67.7284C106.714 67.7653 106.787 67.7653 106.843 67.8208C106.88 67.8392 106.935 67.8947 106.935 67.9501C106.935 68.0056 106.861 68.061 106.806 68.061C106.695 68.098 106.566 68.0795 106.455 68.0241C106.399 68.0056 106.344 67.9686 106.325 67.9132C106.325 67.9132 106.27 67.8023 106.325 67.7468C106.344 67.7099 106.399 67.7099 106.436 67.6914C106.473 67.7099 106.51 67.7099 106.584 67.7284Z" fill="white"/>
<path opacity="0.21" d="M129.262 79.4258C129.133 79.0746 129.04 78.5571 129.225 77.7438C129.706 75.6551 131.757 72.6608 134.899 71.1821C135.453 70.9233 136.026 70.7569 136.58 70.7385C138.114 70.72 139.131 72.2172 139.482 72.6977C140.702 74.3798 140.609 76.2466 140.554 76.9305C140.535 76.7087 140.387 76.5239 140.203 76.4869C140.092 76.4684 139.999 76.4869 139.944 76.5054C140.11 77.0969 140.277 77.8732 140.332 78.7789C140.387 79.814 140.295 80.7012 140.166 81.3666C139.463 81.7918 138.373 82.3093 136.932 82.4757C136.433 82.5311 135.971 82.5311 135.564 82.4942C135.823 82.6605 136.063 82.8269 136.322 82.9932C135.638 82.9747 134.64 82.8638 133.55 82.4017C132.958 82.1614 132.459 81.8657 132.071 81.6069C132.108 81.7363 132.145 81.8842 132.182 82.0136C131.277 81.5884 130.648 81.0894 130.26 80.7382C129.817 80.3131 129.465 79.9804 129.262 79.4258Z" fill="black"/>
<path d="M132.92 73.1591C133.327 72.7895 134.953 71.3292 136.82 71.7174C137.651 71.9022 138.28 72.4013 138.612 72.7525C140.054 74.3236 139.943 77.2995 138.261 80.1275C136.968 81.7911 134.602 82.2532 132.773 81.2181C130.924 80.1645 130.148 77.891 130.943 75.9132C131.072 75.6544 131.257 75.2848 131.516 74.8781C131.682 74.6009 132.218 73.8061 132.92 73.1591Z" fill="#1A1A1A"/>
<path d="M138.061 79.576C138.061 79.576 140.519 75.676 138.356 72.9219C138.356 72.9219 139.243 74.3821 138.911 75.2878C138.911 75.2878 139.04 74.6039 138.541 73.7352C138.541 73.7352 139.151 74.8627 138.264 76.8035C137.377 78.7443 137.34 78.8182 137.34 78.8182L137.95 79.4467C138.079 79.2433 138.227 79.003 138.356 78.7443C138.56 78.3376 138.707 77.9495 138.837 77.5983C138.8 77.7277 138.763 77.8755 138.726 78.0234C138.523 78.6149 138.301 79.1324 138.061 79.576Z" fill="#156AE5"/>
<path d="M137.746 79.5022C137.746 79.5022 140.814 75.0107 137.746 72.4414C137.746 72.4414 140.463 74.4746 137.746 79.5022Z" fill="#00AEEF"/>
<path d="M134.289 72.9753C134.584 73.0307 134.843 73.197 135.065 73.3818C135.249 73.5297 135.416 73.7145 135.471 73.9363C135.527 74.158 135.434 74.4352 135.231 74.5276C135.046 74.6016 134.843 74.5276 134.658 74.4537C134.325 74.3243 133.993 74.195 133.66 74.0656C133.549 74.0287 133.438 73.9732 133.364 73.8993C133.254 73.7884 133.18 73.6406 133.198 73.4742C133.254 73.0492 133.919 72.9013 134.289 72.9753Z" fill="white"/>
<path d="M137.726 78.7447C137.633 78.6893 137.541 78.6523 137.449 78.6523C137.356 78.6708 137.245 78.7447 137.264 78.8556C137.264 78.9111 137.301 78.948 137.338 79.0035C137.504 79.2252 137.689 79.4285 137.911 79.5764C138.132 79.7242 138.576 79.7981 138.391 79.41C138.225 79.1328 137.966 78.8926 137.726 78.7447Z" fill="white"/>
<path d="M133.939 74.8992C133.809 74.8622 133.736 74.8438 133.68 74.8438C133.643 74.8438 133.551 74.8622 133.532 74.9177C133.514 74.9731 133.551 75.047 133.588 75.084C133.68 75.1579 133.791 75.2134 133.902 75.2318C133.957 75.2318 134.013 75.2318 134.068 75.1949C134.068 75.1949 134.161 75.1394 134.161 75.047C134.161 75.0101 134.124 74.9731 134.087 74.9546C134.05 74.9362 134.013 74.9177 133.939 74.8992Z" fill="white"/>
<path d="M100.914 46.0615C100.914 46.0615 103.39 45.0821 106.403 44.6016C106.403 44.6016 106.329 46.4866 107.234 47.9281L101.69 49.0554C101.69 49.0554 101.043 47.1888 100.914 46.0615Z" fill="white"/>
<path d="M103.573 47.9659L102.039 48.2431C102.002 48.2431 101.965 48.2246 101.946 48.2062C101.928 48.1692 101.928 48.1323 101.946 48.0953L102.575 47.1897L101.669 46.5614C101.632 46.5429 101.614 46.506 101.632 46.469C101.632 46.432 101.669 46.3951 101.706 46.3951L103.998 45.97C104.478 45.8776 104.94 46.1733 105.07 46.6353L105.753 46.506C105.809 46.4875 105.846 46.5244 105.864 46.5799C105.883 46.6353 105.846 46.6723 105.79 46.6908L104.256 46.968C104.072 47.0049 103.961 47.1713 103.998 47.3561C104.053 47.6518 103.868 47.929 103.573 47.9659ZM102.242 48.0214L103.554 47.7811C103.739 47.7442 103.85 47.5778 103.813 47.393C103.794 47.2637 103.813 47.1528 103.868 47.0419L102.76 47.2452L102.242 48.0214ZM102.723 47.0789L104.885 46.6723C104.774 46.3212 104.404 46.0994 104.035 46.1548L101.965 46.5429L102.723 47.0789Z" fill="#00AEEF"/>
<path d="M75.4673 22.3658C75.4673 22.3658 80.2722 20.2771 83.6542 22.3658V25.5635C83.6542 25.5635 85.3729 26.1735 85.5022 26.8574C85.6316 27.5413 94.798 76.6158 95.1676 77.7618C95.5372 78.9078 95.4078 79.1665 95.4818 79.4623C95.5372 79.6656 97.7549 81.9576 99.1409 83.3809C99.8247 84.0832 100.046 85.0998 99.6953 86.0055C97.9766 90.5895 92.414 104.231 85.6871 107.743C85.6871 107.743 74.2291 94.2124 73.1203 87.9094C72.0114 81.6064 73.0648 29.2048 73.6192 26.9868C73.6192 26.9868 73.878 25.8777 74.802 25.3232L75.4673 22.3658Z" fill="url(#paint11_linear_2865_33517)"/>
<path d="M118.618 98.5367C119.006 100.034 119.893 101.346 121.131 102.27C122.536 103.305 124.107 103.509 125.807 103.527C126.694 103.546 127.599 103.564 128.394 104.045C129.096 104.488 129.632 105.154 130.076 105.856C130.482 106.485 130.815 107.261 131.333 107.816C131.961 108.481 132.793 108.573 133.68 108.481C134.733 108.37 134.751 106.707 133.68 106.817C133.162 106.873 132.792 106.91 132.423 106.503C132.201 106.263 132.053 105.875 131.887 105.597C131.517 105.006 131.129 104.415 130.686 103.878C129.799 102.825 128.653 102.159 127.285 101.956C125.807 101.753 124.291 102.049 122.905 101.383C121.556 100.736 120.614 99.5348 120.263 98.093C119.949 97.058 118.341 97.5016 118.618 98.5367Z" fill="url(#paint12_linear_2865_33517)"/>
<path d="M109.341 96.4876C109.341 97.7261 108.842 98.8905 107.881 99.6853C106.883 100.517 106.107 100.979 105.793 102.329C105.515 103.548 105.404 104.842 105.33 106.099C105.294 106.931 105.201 107.227 104.462 107.633C103.778 108.022 103.094 108.41 102.411 108.798C101.487 109.334 102.318 110.757 103.242 110.24C104.314 109.63 106.088 109.001 106.68 107.818C106.975 107.245 106.957 106.561 106.975 105.933C107.031 105.083 107.105 104.232 107.252 103.382C107.4 102.532 107.567 101.94 108.287 101.423C108.805 101.053 109.285 100.683 109.692 100.166C110.542 99.1123 110.967 97.837 110.967 96.4876C111.004 95.4156 109.341 95.4156 109.341 96.4876Z" fill="url(#paint13_linear_2865_33517)"/>
<path d="M96.238 127.741C96.238 127.741 96.1456 133.988 93.9648 137.316L95.0922 139.164C95.0922 139.164 117.25 134.21 122.61 135.467L123.497 133.157C123.497 133.157 119.246 126.262 119.246 124.599C119.246 124.599 111.577 122.935 96.238 127.741Z" fill="url(#paint14_linear_2865_33517)"/>
<path d="M102.022 109.496L100.691 110.346C100.691 110.346 100.784 110.549 101.098 110.771L102.521 110.143C102.502 110.124 102.539 109.625 102.022 109.496Z" fill="#1A1A1A"/>
<path d="M134.308 107.926L135.786 107.39C135.786 107.39 135.731 107.168 135.49 106.891L133.975 107.205C133.956 107.205 133.827 107.704 134.308 107.926Z" fill="#1A1A1A"/>
<path d="M104.093 212.082C104.74 210.917 105.96 210.843 107.161 210.843C107.512 210.843 107.512 210.289 107.161 210.289C105.756 210.289 104.352 210.455 103.613 211.804C103.446 212.119 103.927 212.396 104.093 212.082Z" fill="#E6E6E6"/>
<path d="M103.647 215.189C104.22 214.246 105.717 212.657 106.936 213.322C107.25 213.489 107.528 213.008 107.213 212.842C105.661 211.992 103.905 213.655 103.148 214.893C102.981 215.207 103.462 215.485 103.647 215.189Z" fill="#E6E6E6"/>
<path d="M103.775 216.946C104.218 216.724 104.459 216.354 104.791 216.003C105.272 215.504 105.937 215.282 106.639 215.393C106.99 215.449 107.138 214.913 106.787 214.857C106.177 214.765 105.586 214.82 105.05 215.116C104.422 215.449 104.126 216.151 103.498 216.465C103.183 216.631 103.461 217.093 103.775 216.946Z" fill="#E6E6E6"/>
<path d="M127.913 220.955C129.318 220.826 131.85 221.196 132.589 222.582C132.755 222.896 133.236 222.619 133.07 222.304C132.7 221.584 132.072 221.177 131.314 220.918C130.242 220.549 129.059 220.29 127.932 220.401C127.562 220.438 127.562 220.992 127.913 220.955Z" fill="#E6E6E6"/>
<path d="M127.431 223.337C128.115 223.022 129.372 223.152 130.056 223.392C130.795 223.632 131.423 224.168 132.051 224.593C132.347 224.796 132.624 224.316 132.329 224.113C130.85 223.096 128.984 222.024 127.154 222.856C126.821 223.004 127.099 223.484 127.431 223.337Z" fill="#E6E6E6"/>
<path d="M126.583 225.168C127.433 225.021 128.413 224.836 129.263 224.947C130.15 225.076 130.723 225.871 131.333 226.462C131.591 226.721 131.98 226.314 131.721 226.074C131.074 225.427 130.464 224.596 129.503 224.411C128.505 224.226 127.396 224.466 126.417 224.614C126.084 224.688 126.232 225.224 126.583 225.168Z" fill="#E6E6E6"/>
<defs>
<linearGradient id="paint0_linear_2865_33517" x1="125.399" y1="179.251" x2="103.493" y2="-5.11459" gradientUnits="userSpaceOnUse">
<stop stop-color="#FFB43B"/>
<stop offset="1" stop-color="#FFCE43"/>
</linearGradient>
<linearGradient id="paint1_linear_2865_33517" x1="31.3624" y1="190.422" x2="9.4564" y2="6.05637" gradientUnits="userSpaceOnUse">
<stop stop-color="#FFB43B"/>
<stop offset="1" stop-color="#FFCE43"/>
</linearGradient>
<linearGradient id="paint2_linear_2865_33517" x1="215.007" y1="168.604" x2="193.101" y2="-15.7615" gradientUnits="userSpaceOnUse">
<stop stop-color="#FFB43B"/>
<stop offset="1" stop-color="#FFCE43"/>
</linearGradient>
<linearGradient id="paint3_linear_2865_33517" x1="97.5526" y1="94.2698" x2="110.471" y2="147.371" gradientUnits="userSpaceOnUse">
<stop stop-color="#333B71"/>
<stop offset="1" stop-color="#32BDE2"/>
</linearGradient>
<linearGradient id="paint4_linear_2865_33517" x1="129.09" y1="110.364" x2="169.888" y2="110.364" gradientUnits="userSpaceOnUse">
<stop stop-color="#333B71"/>
<stop offset="1" stop-color="#32BDE2"/>
</linearGradient>
<linearGradient id="paint5_linear_2865_33517" x1="134.02" y1="98.1347" x2="95.5796" y2="90.5588" gradientUnits="userSpaceOnUse">
<stop stop-color="#333B71"/>
<stop offset="1" stop-color="#32BDE2"/>
</linearGradient>
<linearGradient id="paint6_linear_2865_33517" x1="96.7128" y1="38.1217" x2="152.39" y2="52.7105" gradientUnits="userSpaceOnUse">
<stop stop-color="white"/>
<stop offset="0.0322952" stop-color="#EDF9FE"/>
<stop offset="0.1427" stop-color="#B6E8FA"/>
<stop offset="0.2568" stop-color="#86D8F7"/>
<stop offset="0.3723" stop-color="#5DCBF5"/>
<stop offset="0.4896" stop-color="#3BC1F3"/>
<stop offset="0.6091" stop-color="#21B9F1"/>
<stop offset="0.7316" stop-color="#0FB3F0"/>
<stop offset="0.8592" stop-color="#04AFEF"/>
<stop offset="1" stop-color="#00AEEF"/>
</linearGradient>
<linearGradient id="paint7_linear_2865_33517" x1="97.14" y1="36.4908" x2="152.817" y2="51.0796" gradientUnits="userSpaceOnUse">
<stop stop-color="white"/>
<stop offset="0.0322952" stop-color="#EDF9FE"/>
<stop offset="0.1427" stop-color="#B6E8FA"/>
<stop offset="0.2568" stop-color="#86D8F7"/>
<stop offset="0.3723" stop-color="#5DCBF5"/>
<stop offset="0.4896" stop-color="#3BC1F3"/>
<stop offset="0.6091" stop-color="#21B9F1"/>
<stop offset="0.7316" stop-color="#0FB3F0"/>
<stop offset="0.8592" stop-color="#04AFEF"/>
<stop offset="1" stop-color="#00AEEF"/>
</linearGradient>
<linearGradient id="paint8_linear_2865_33517" x1="133.81" y1="43.1376" x2="153.195" y2="71.0237" gradientUnits="userSpaceOnUse">
<stop offset="0.0027027" stop-color="#05B0EF"/>
<stop offset="0.1915" stop-color="#039DEF"/>
<stop offset="0.4442" stop-color="#018BEF"/>
<stop offset="0.7083" stop-color="#0080EF"/>
<stop offset="1" stop-color="#007CEF"/>
</linearGradient>
<radialGradient id="paint9_radial_2865_33517" cx="0" cy="0" r="1" gradientUnits="userSpaceOnUse" gradientTransform="translate(120.865 69.7041) rotate(14.6877) scale(36.6586 36.6641)">
<stop stop-color="white"/>
<stop offset="0.2409" stop-color="#FBFBFB"/>
<stop offset="0.4652" stop-color="#F0F0F0"/>
<stop offset="0.683" stop-color="#DDDDDD"/>
<stop offset="0.8954" stop-color="#C3C3C3"/>
<stop offset="1" stop-color="#B3B3B3"/>
</radialGradient>
<linearGradient id="paint10_linear_2865_33517" x1="114.457" y1="77.1173" x2="112.431" y2="85.1625" gradientUnits="userSpaceOnUse">
<stop stop-color="#1A1A1A"/>
<stop offset="1" stop-opacity="0"/>
</linearGradient>
<linearGradient id="paint11_linear_2865_33517" x1="71.5462" y1="24.9908" x2="91.5108" y2="107.053" gradientUnits="userSpaceOnUse">
<stop stop-color="#333B71"/>
<stop offset="1" stop-color="#32BDE2"/>
</linearGradient>
<linearGradient id="paint12_linear_2865_33517" x1="119.14" y1="103.014" x2="133.692" y2="103.014" gradientUnits="userSpaceOnUse">
<stop stop-color="white"/>
<stop offset="0.0322952" stop-color="#EDF9FE"/>
<stop offset="0.1427" stop-color="#B6E8FA"/>
<stop offset="0.2568" stop-color="#86D8F7"/>
<stop offset="0.3723" stop-color="#5DCBF5"/>
<stop offset="0.4896" stop-color="#3BC1F3"/>
<stop offset="0.6091" stop-color="#21B9F1"/>
<stop offset="0.7316" stop-color="#0FB3F0"/>
<stop offset="0.8592" stop-color="#04AFEF"/>
<stop offset="1" stop-color="#00AEEF"/>
</linearGradient>
<linearGradient id="paint13_linear_2865_33517" x1="110.853" y1="96.3648" x2="103.706" y2="109.672" gradientUnits="userSpaceOnUse">
<stop stop-color="white"/>
<stop offset="0.0322952" stop-color="#EDF9FE"/>
<stop offset="0.1427" stop-color="#B6E8FA"/>
<stop offset="0.2568" stop-color="#86D8F7"/>
<stop offset="0.3723" stop-color="#5DCBF5"/>
<stop offset="0.4896" stop-color="#3BC1F3"/>
<stop offset="0.6091" stop-color="#21B9F1"/>
<stop offset="0.7316" stop-color="#0FB3F0"/>
<stop offset="0.8592" stop-color="#04AFEF"/>
<stop offset="1" stop-color="#00AEEF"/>
</linearGradient>
<linearGradient id="paint14_linear_2865_33517" x1="122.58" y1="123.612" x2="94.98" y2="140.366" gradientUnits="userSpaceOnUse">
<stop stop-color="#333B71"/>
<stop offset="1" stop-color="#32BDE2"/>
</linearGradient>
</defs>
</svg>
