<svg width="16" height="18" viewBox="0 0 16 18" fill="none" xmlns="http://www.w3.org/2000/svg">
<path fill-rule="evenodd" clip-rule="evenodd" d="M11.7506 4.36185C10.2633 4.36185 9.47367 5.10563 8.3052 5.09046C7.13642 5.10563 6.34708 4.36185 4.8596 4.36185C3.67569 4.36185 2.17277 5.09046 1.48982 6.15328C0.230087 8.0966 0.35141 10.207 0.882703 12.3928C1.45949 14.7161 3.49343 17.5703 5.10248 17.5703C6.42287 17.5703 7.0151 16.8564 8.3052 16.8564C9.59496 16.8564 10.1718 17.5703 11.4776 17.5703C12.9648 17.5703 14.7407 15.1257 15.5 12.9545C14.0426 12.3776 13.0558 10.9356 13.0558 9.4021C13.0558 7.88402 13.8302 6.71504 15.0141 6.04713C14.2857 5.06013 12.889 4.36185 11.7506 4.36185ZM11.3557 0.429688C9.21589 0.65747 7.62225 2.44883 7.75874 4.48321C9.89884 4.27063 11.4776 2.46403 11.3557 0.429688Z" fill="white"/>
</svg>
