<svg width="281" height="222" viewBox="0 0 281 222" fill="none" xmlns="http://www.w3.org/2000/svg">
<path d="M2.69341 31.3194L21.1752 155.459C21.8126 159.882 25.8683 163.032 30.3389 162.633L256.343 143.177C260.995 142.763 264.53 138.695 264.113 134.01L255.763 36.8133C255.346 32.1289 251.203 28.6843 246.491 29.1038L107.583 41.9559C105.348 42.1549 103.098 41.5078 101.383 40.0261L75.1662 18.4503C73.4565 17.0287 71.2618 16.3161 69.0265 16.5152L10.4096 21.5526C5.52148 22.0484 1.95822 26.4818 2.69341 31.3194Z" fill="#12A9CC"/>
<path d="M0.555924 71.466L30.7999 215.054C31.3131 217.592 33.7079 219.332 36.2771 219.161L263.235 199.642C265.913 199.404 267.953 197.155 267.943 194.456L266.878 48.328C266.842 45.3447 264.277 42.9886 261.252 43.2005L5.17178 65.2544C2.03784 65.5334 -0.116903 68.4246 0.555924 71.466Z" fill="#31CFFF"/>
<path d="M27.0774 86.1614L16.6499 87.0898C16.422 87.1101 16.1219 86.9645 16.0446 86.7417C15.9103 86.5239 15.942 86.2339 16.0977 86.0478L20.8732 80.3388L15.1642 75.5633C14.978 75.4076 14.8957 75.1277 14.9893 74.8897C15.083 74.6516 15.2957 74.4604 15.5236 74.4401L31.1933 73.0449C34.4412 72.7557 37.3426 75.0244 37.9635 78.1279L42.5789 77.717C42.9208 77.6865 43.2311 77.9461 43.2615 78.288C43.292 78.6299 43.0324 78.9401 42.6905 78.9706L32.2631 79.899C31.0665 80.0055 30.1271 81.0655 30.2387 82.3191C30.4162 84.3134 29.0147 85.9889 27.0774 86.1614ZM18.0198 85.7043L26.9658 84.9078C28.1624 84.8013 29.1018 83.7413 28.9902 82.4877C28.9141 81.633 29.133 80.8669 29.59 80.1944L22.0686 80.8641L18.0198 85.7043ZM21.962 79.6675L36.7201 78.3535C36.2119 75.8717 33.8792 74.1841 31.3151 74.4124L17.1269 75.6757L21.962 79.6675Z" fill="white"/>
<path d="M123.509 158.44L120.566 156.347C119.894 155.89 119.869 154.973 120.461 154.518C123.63 152.054 130.277 148.016 139.994 147.495C148.282 147.045 154.518 149.361 158.011 151.175C158.73 151.513 158.811 152.425 158.287 152.988L155.817 155.563C155.397 156.002 154.718 156.12 154.175 155.824C151.469 154.457 146.655 152.646 140.253 152.986C132.711 153.428 127.594 156.583 125.172 158.406C124.746 158.789 124.057 158.793 123.509 158.44Z" fill="white"/>
<path d="M109.719 130.602C108.617 124.038 103.458 118.984 98.2155 119.451C92.9733 119.917 89.8706 125.707 91.2568 132.246C92.6227 138.557 97.6846 143.16 102.642 142.719C107.599 142.277 110.743 136.943 109.719 130.602Z" fill="white"/>
<path d="M182.422 124.129C182.518 117.459 178.327 112.318 173.085 112.785C167.842 113.252 163.771 119.128 163.961 125.773C164.187 132.186 168.337 136.87 173.295 136.429C178.252 135.987 182.364 130.567 182.422 124.129Z" fill="white"/>
</svg>
