<svg width="26" height="25" viewBox="0 0 26 25" fill="none" xmlns="http://www.w3.org/2000/svg">
<path d="M12.3908 5.4086H1.73454C1.5256 5.4086 1.31665 5.47825 1.17735 5.6872C0.898759 5.96579 0.968407 6.38368 1.247 6.66228L5.63486 11.0501C6.47065 11.8859 6.47065 13.1396 5.63486 13.9754L1.247 18.3632C0.968407 18.6418 0.968407 19.0597 1.17735 19.3383C1.31665 19.4776 1.5256 19.6169 1.73454 19.6169H13.3659C15.525 19.6169 17.2662 17.8061 17.2662 15.6469C17.2662 14.3236 18.3806 13.2092 19.7039 13.2092H24.5793C24.7882 13.2092 24.9275 13.0699 24.9275 12.9307C25.0668 11.9556 24.9972 11.1894 24.7882 10.5626C23.8132 7.21947 18.7984 5.13001 12.3908 5.4086Z" stroke="#7FD6F6" stroke-width="1.5" stroke-miterlimit="10"/>
</svg>
